<svg width="20" height="20" viewBox="0 0 20 20" fill="none" xmlns="http://www.w3.org/2000/svg">
    <g clip-path="url(#clip0_275_2471)">
    <path d="M10.002 0C4.48751 0 0.00112915 4.48638 0.00112915 10.0008C0.00112915 15.5153 4.48751 20 10.002 20C15.5164 20 20.0028 15.5136 20.0028 10.0008C20.0028 4.48807 15.5159 0 10.002 0ZM16.2071 16.2048C14.619 17.7917 12.4254 18.7748 10.0014 18.7748C5.15506 18.7748 1.22638 14.8461 1.22638 10.0008C1.22638 7.57682 2.2077 5.38321 3.7963 3.79517C5.38434 2.20714 7.57795 1.22525 10.002 1.22525C12.426 1.22525 14.6196 2.20657 16.2076 3.79517C17.7957 5.38321 18.7776 7.57682 18.7776 10.0008C18.7776 12.4249 17.7962 14.6168 16.2076 16.2048H16.2071Z" fill="#58616E"/>
    <path d="M16.0403 6.9949C15.8967 6.45748 15.4731 6.03442 14.9351 5.89077C13.9605 5.62995 10.0515 5.62995 10.0515 5.62995C10.0515 5.62995 6.14313 5.62995 5.16801 5.89077C4.63002 6.03442 4.20696 6.45748 4.06275 6.9949C3.80136 7.96834 3.80136 10.0003 3.80136 10.0003C3.80136 10.0003 3.80136 12.0317 4.06275 13.0057C4.2064 13.5431 4.63002 13.9661 5.16801 14.1098C6.14257 14.3706 10.0515 14.3706 10.0515 14.3706C10.0515 14.3706 13.9599 14.3706 14.9351 14.1098C15.4731 13.9661 15.8961 13.5431 16.0403 13.0057C16.3017 12.0322 16.3017 10.0003 16.3017 10.0003C16.3017 10.0003 16.3017 7.9689 16.0403 6.9949ZM8.80206 11.8728V8.1272L12.0491 10.0003L8.80206 11.8734V11.8728Z" fill="#58616E"/>
    </g>
    <defs>
    <clipPath id="clip0_275_2471">
    <rect width="20.0011" height="20" fill="white" transform="translate(0.00112915)"/>
    </clipPath>
    </defs>
    </svg>
    