<svg width="20" height="20" viewBox="0 0 20 20" fill="none" xmlns="http://www.w3.org/2000/svg">
    <path d="M1.68782 2.55721L1.688 2.55703L2.98045 1.26333C2.98047 1.26331 2.98048 1.2633 2.9805 1.26328C3.11057 1.13306 3.26685 1.03201 3.43897 0.966822C3.61112 0.901631 3.79516 0.873814 3.97888 0.885217C4.16259 0.89662 4.34178 0.946984 4.50454 1.03296L4.29435 1.43086L4.50454 1.03296C4.6673 1.11894 4.8099 1.23856 4.92288 1.38389L7.16533 4.26758L7.16568 4.26803C7.2861 4.42329 7.36969 4.60387 7.41013 4.79615C7.45058 4.98843 7.44682 5.18738 7.39916 5.37799L7.39914 5.37806L6.71422 8.11523L1.68782 2.55721ZM1.68782 2.55721C0.975811 3.27069 0.69203 4.30459 1.01926 5.23664L1.01939 5.23701M1.68782 2.55721L1.01939 5.23701M1.01939 5.23701C2.13641 8.40999 3.95342 11.2908 6.33565 13.6658C8.71066 16.048 11.5915 17.865 14.7644 18.982L14.7648 18.9822M1.01939 5.23701L14.7648 18.9822M14.7648 18.9822C15.6968 19.3094 16.7307 19.0256 17.4442 18.3136L17.4445 18.3133M14.7648 18.9822L17.4445 18.3133M17.4445 18.3133L18.7369 17.021M17.4445 18.3133L15.7321 12.8357M15.7321 12.8357L15.7326 12.8361L18.6163 15.0785C18.7616 15.1915 18.8812 15.3341 18.9672 15.4969L18.5693 15.7071L18.9672 15.4969C19.0532 15.6596 19.1036 15.8388 19.115 16.0225C19.1264 16.2063 19.0985 16.3903 19.0334 16.5625C18.9682 16.7346 18.8671 16.8909 18.7369 17.021M15.7321 12.8357C15.5769 12.7153 15.3963 12.6317 15.204 12.5913L15.1114 13.0317M15.7321 12.8357L15.1114 13.0317M18.7369 17.021L18.4188 16.7026L18.737 17.0208L18.7369 17.021ZM15.1114 13.0317L15.204 12.5913C15.0118 12.5509 14.8129 12.5546 14.6223 12.6022C14.6223 12.6022 14.6222 12.6023 14.6222 12.6023L11.8848 13.286L11.8847 13.286M15.1114 13.0317L11.8847 13.286M11.8847 13.286C11.5947 13.3585 11.2909 13.3546 11.0028 13.2748C10.7147 13.195 10.4522 13.042 10.2409 12.8307C10.2408 12.8307 10.2408 12.8306 10.2408 12.8306L7.17086 9.75944L7.1706 9.75918M11.8847 13.286L7.1706 9.75918M7.1706 9.75918C6.95905 9.54789 6.80582 9.28542 6.72584 8.99733M7.1706 9.75918L6.72584 8.99733M2.71329 0.918283L2.67455 0.957023L1.38205 2.24952C0.564664 3.06691 0.221149 4.27298 0.609643 5.37837C1.74798 8.61265 3.59983 11.5492 6.02784 13.9702L6.02875 13.9711C8.45013 16.3993 11.3872 18.2512 14.622 19.3893L14.622 19.3894C15.7286 19.779 16.9333 19.4355 17.7507 18.6181L19.0432 17.3256L19.0434 17.3254C19.779 16.5908 19.7042 15.3755 18.8813 14.7352L15.999 12.4929C15.7918 12.3319 15.5506 12.2201 15.2939 12.1659C15.0371 12.1118 14.7713 12.1167 14.5168 12.1804L14.5167 12.1804L11.7807 12.8641L11.7804 12.8642L11.6714 12.4276L2.71329 0.918283ZM2.71329 0.918283C2.8786 0.763216 3.07289 0.641989 3.28523 0.561673C3.51492 0.474794 3.76046 0.437773 4.00555 0.453068C4.25064 0.468362 4.48968 0.535623 4.70678 0.650384C4.92388 0.765145 5.11409 0.92478 5.26477 1.11869L5.26493 1.11889L7.50739 4.00135C7.5074 4.00136 7.50741 4.00138 7.50742 4.00139L2.71329 0.918283ZM6.72584 8.99733C6.6459 8.70934 6.64186 8.40556 6.71414 8.11556L6.72584 8.99733Z" fill="#58616E" stroke="#58616E" stroke-width="0.9"/>
    </svg>
    