<svg width="20" height="20" viewBox="0 0 22 20" fill="none" xmlns="http://www.w3.org/2000/svg">
    <path d="M15.9999 17.625V15.2917C16.0013 14.5559 16.5974 13.9597 17.3332 13.9584L15.9999 17.625ZM15.9999 17.625C16.0013 18.3608 16.5975 18.957 17.3332 18.9583H19.6666M15.9999 17.625L19.6666 18.9583M19.6666 18.9583C20.4024 18.957 20.9985 18.3608 20.9999 17.625L19.6666 18.9583ZM13.9167 2.375V5.125V2.375ZM13.9167 2.375C13.9153 1.63918 13.3191 1.04305 12.5834 1.04168L13.9167 2.375ZM19.6669 13.8583H19.6667H19.0167V11.1991C19.0167 9.9423 17.8233 8.85832 16.4762 8.85832H11.5167V6.55832L12.5834 6.55832L12.5835 6.55832C13.3745 6.55685 14.0152 5.91605 14.0167 5.12519V5.125V2.375L14.0167 2.37481C14.0152 1.58391 13.3744 0.943149 12.5835 0.941679H12.5834L9.41668 0.941679L9.41649 0.94168C8.62559 0.943149 7.98483 1.58395 7.98336 2.37481V2.375L7.98336 5.125L7.98336 5.12519C7.98483 5.91609 8.62563 6.55685 9.41649 6.55832H9.41668H10.4834V8.85832H5.52375C4.17673 8.85832 2.98332 9.9423 2.98332 11.1991V13.8583H2.33332L2.33313 13.8583C1.54227 13.8598 0.90147 14.5006 0.9 15.2915V15.2917L0.9 17.625L0.9 17.6252C0.90147 18.4161 1.54227 19.0569 2.33313 19.0583H2.33332H4.66664H4.66683C5.45773 19.0569 6.09849 18.416 6.09996 17.6252V17.625L6.09996 15.2917L6.09996 15.2915C6.09849 14.5006 5.45769 13.8598 4.66683 13.8584H4.66664H4.01664V11.1992C4.01664 10.8334 4.20907 10.5079 4.49897 10.2706C4.78936 10.033 5.16908 9.89168 5.52371 9.89168H10.4833V13.8584H9.83328L9.8331 13.8584C9.04219 13.8598 8.40143 14.5006 8.39996 15.2915V15.2917L8.39996 17.625L8.39996 17.6252C8.40143 18.4161 9.04223 19.0569 9.8331 19.0583H9.83328H12.1666H12.1668C12.9577 19.0569 13.5985 18.416 13.5999 17.6252V17.625V15.2917L13.5999 15.2915C13.5985 14.5006 12.9577 13.8598 12.1668 13.8584H12.1666H11.5166V9.89168H16.4762C16.8308 9.89168 17.2105 10.033 17.5009 10.2706C17.7908 10.5079 17.9832 10.8334 17.9832 11.1992V13.8584H17.3332L17.3331 13.8584C16.5422 13.8598 15.9014 14.5006 15.8999 15.2915V15.2917V17.625L15.8999 17.6252C15.9014 18.4161 16.5422 19.0569 17.3331 19.0583H17.3332H19.6666H19.6667C20.4577 19.0569 21.0984 18.416 21.0999 17.6252V17.625V15.2917V15.2915C21.0985 14.5006 20.4577 13.8598 19.6669 13.8583ZM4.66668 14.8917C4.88758 14.8917 5.06668 15.0708 5.06668 15.2917V17.625C5.06668 17.8459 4.88758 18.025 4.66668 18.025H2.33332C2.11242 18.025 1.93332 17.8459 1.93332 17.625V15.2917C1.93332 15.0708 2.11242 14.8917 2.33332 14.8917H4.66668ZM12.1667 14.8917C12.3876 14.8917 12.5667 15.0708 12.5667 15.2917V17.625C12.5667 17.8459 12.3876 18.025 12.1667 18.025H9.83336C9.61246 18.025 9.43336 17.8459 9.43336 17.625V15.2917C9.43336 15.0708 9.61246 14.8917 9.83336 14.8917H12.1667ZM9.41668 5.525C9.19578 5.525 9.01668 5.3459 9.01668 5.125V2.375C9.01668 2.1541 9.19578 1.975 9.41668 1.975H12.5834C12.8043 1.975 12.9834 2.1541 12.9834 2.375V5.125C12.9834 5.3459 12.8043 5.525 12.5834 5.525H9.41668ZM20.0667 17.625C20.0667 17.8459 19.8876 18.025 19.6667 18.025H17.3334C17.1125 18.025 16.9334 17.8459 16.9334 17.625V15.2917C16.9334 15.0708 17.1125 14.8917 17.3334 14.8917H19.6667C19.8876 14.8917 20.0667 15.0708 20.0667 15.2917V17.625Z" fill="#58616E" stroke="#58616E" stroke-width="0.2"/>
    </svg>
    