<svg width="28" height="28" viewBox="0 0 28 28" fill="none" xmlns="http://www.w3.org/2000/svg">
    <path d="M13.9019 24.0995V24.1037H14.0019C16.701 24.1037 19.239 23.0509 21.145 21.145C23.0547 19.2353 24.1037 16.701 24.1037 14.0019C24.1037 11.3027 23.0509 8.76471 21.145 6.85875C19.2353 4.94906 16.701 3.9 14.0019 3.9C11.3028 3.9 8.76479 4.94899 6.85875 6.85875C4.94898 8.7648 3.9 11.3066 3.9 14.0019C3.9 16.6972 4.94901 19.2352 6.85875 21.1413C8.74485 23.0273 11.2402 24.0739 13.9019 24.0995ZM13.1941 16.0598H13.2177L13.2252 16.0561H14.2252C14.3077 16.0561 14.3852 16.0231 14.4411 15.9672L14.4412 15.9673L14.4444 15.9638C14.4952 15.9079 14.5299 15.8364 14.5299 15.7513V15.6173C14.5299 15.1512 14.6228 14.8596 14.82 14.5987C15.0234 14.3298 15.3404 14.0885 15.8117 13.7317C16.5298 13.1885 17.3812 12.5439 17.3812 11.1431C17.3812 10.1681 16.9342 9.45867 16.2873 8.99635C15.6439 8.53645 14.8053 8.32211 14.013 8.32211C13.2231 8.32211 12.3889 8.50842 11.7347 8.96301C11.0773 9.41978 10.6087 10.143 10.5484 11.1973C10.5427 11.2468 10.5571 11.2906 10.5644 11.3125C10.5777 11.3525 10.6023 11.3877 10.6295 11.4148L10.7002 11.3441L10.6295 11.4148C10.6598 11.4452 10.6949 11.4626 10.7157 11.473C10.7167 11.4735 10.7178 11.474 10.7187 11.4745C10.7596 11.495 10.7988 11.5 10.8379 11.5H11.8801C12.053 11.5 12.186 11.3621 12.2064 11.1931C12.2688 10.7359 12.4597 10.3775 12.7479 10.1329C13.0366 9.88801 13.4311 9.75047 13.9125 9.75047C14.3264 9.75047 14.7461 9.85156 15.0597 10.0856C15.3689 10.3165 15.5843 10.6834 15.5843 11.2399C15.5843 11.6515 15.4607 11.9478 15.2501 12.2092C15.0354 12.4756 14.7303 12.7061 14.3595 12.9833C13.5837 13.5455 12.8397 14.2539 12.8931 15.4855V15.7588C12.8931 15.8385 12.9268 15.9158 12.982 15.971C13.0364 16.0254 13.1097 16.0598 13.1941 16.0598ZM7.73719 7.73719C9.41209 6.0623 11.6349 5.14225 14.0019 5.14225C16.3688 5.14225 18.5916 6.0623 20.2665 7.73719C21.9414 9.41209 22.8615 11.6349 22.8615 14.0019C22.8615 16.3688 21.9414 18.5916 20.2665 20.2665C18.5916 21.9414 16.3688 22.8615 14.0019 22.8615C11.6349 22.8615 9.41209 21.9414 7.73719 20.2665C6.0623 18.5916 5.14225 16.3688 5.14225 14.0019C5.14225 11.6349 6.0623 9.41209 7.73719 7.73719ZM12.5097 18.4873C12.5097 19.1653 13.0549 19.6481 13.7748 19.6481C14.1449 19.6481 14.4667 19.5348 14.6974 19.3297C14.929 19.1238 15.0622 18.8309 15.0622 18.4873C15.0622 17.7894 14.5046 17.3115 13.7748 17.3115C13.0412 17.3115 12.5097 17.8116 12.5097 18.4873Z" fill="#58616E" stroke="#58616E" stroke-width="0.2"/>
    </svg>
    