<svg width="20" height="20" viewBox="0 0 20 20" fill="none" xmlns="http://www.w3.org/2000/svg">
    <g clip-path="url(#clip0_275_2468)">
    <path d="M10.0008 0C4.48638 0 0 4.48638 0 9.99916C0 15.5119 4.48638 20 10.0008 20C15.5153 20 20.0017 15.5136 20.0017 9.99916C20.0017 4.48469 15.5147 0 10.0008 0ZM16.206 16.2048C14.6179 17.7929 12.4243 18.7748 10.0003 18.7748C5.15393 18.7748 1.22525 14.8461 1.22525 9.99972C1.22525 7.57682 2.20657 5.38377 3.79517 3.79517C5.38321 2.20826 7.57682 1.22525 10.0008 1.22525C12.4249 1.22525 14.6185 2.20826 16.2065 3.79517C17.7946 5.38321 18.7764 7.57682 18.7764 9.99972C18.7764 12.4226 17.7951 14.6174 16.2065 16.2054L16.206 16.2048Z" fill="#58616E"/>
    <path d="M14.894 7.11377C14.894 7.06307 14.8923 7.06138 14.8393 7.06138C14.7114 7.0625 14.5847 7.04898 14.4591 7.02814C14.1374 6.97519 13.8343 6.86815 13.551 6.70648C13.5375 6.69859 13.3707 6.56846 13.3358 6.54255C12.7741 6.133 12.4164 5.58995 12.2694 4.91001C12.2643 4.88522 12.2086 4.56976 12.2091 4.43512C12.2091 4.37484 12.2086 4.37484 12.1488 4.37372C12.1353 4.37372 12.1212 4.37372 12.1077 4.37372C11.5281 4.37372 10.9478 4.37372 10.3681 4.37372C10.2515 4.37372 10.2679 4.35907 10.2679 4.47624C10.2679 6.99152 10.2679 9.5068 10.2679 12.0215C10.2679 12.115 10.2651 12.2091 10.2487 12.3009C10.1614 12.7877 9.91185 13.1685 9.48991 13.4287C9.12431 13.6541 8.72772 13.7183 8.30635 13.6349C8.17341 13.6084 8.04891 13.5589 7.92441 13.5093C7.91427 13.5003 7.90413 13.4907 7.89399 13.4817C7.85174 13.4468 7.80555 13.4175 7.76105 13.3865C7.22419 13.0147 6.96956 12.4987 7.0473 11.8531C7.12617 11.1985 7.50248 10.754 8.12327 10.5247C8.30861 10.4566 8.50352 10.4284 8.70125 10.4386C8.82856 10.4453 8.95531 10.4617 9.07924 10.4966C9.12206 10.509 9.14515 10.4938 9.14741 10.4481C9.14797 10.4324 9.14853 10.416 9.14853 10.4002C9.14853 9.94902 9.14853 9.49723 9.14853 9.046C9.14853 9.01896 9.15248 8.99079 9.13727 8.966C9.13445 8.96488 9.13163 8.96319 9.12938 8.96094C9.13051 8.83081 9.12994 8.70067 9.13276 8.57111C9.13332 8.53336 9.11473 8.52717 9.08319 8.52323C8.84941 8.49562 8.61562 8.48999 8.38015 8.50745C8.05511 8.53111 7.7402 8.59815 7.43375 8.708C6.94534 8.88376 6.51664 9.15528 6.14653 9.51807C5.82882 9.82959 5.5787 10.1896 5.39561 10.5952C5.22042 10.9833 5.11958 11.3912 5.09198 11.8159C5.08015 12.0001 5.0824 12.1849 5.0993 12.3697C5.12296 12.6249 5.17141 12.875 5.24915 13.1183C5.47223 13.8191 5.87783 14.3943 6.45299 14.85C6.51157 14.8962 6.56791 14.9475 6.63776 14.9773C6.66705 15.0032 6.69635 15.0297 6.72564 15.0556C6.81859 15.126 6.9183 15.1858 7.02308 15.2376C7.66753 15.5559 8.34635 15.6854 9.06234 15.5981C9.99072 15.4849 10.7647 15.0731 11.3737 14.3644C11.9472 13.6969 12.2255 12.9138 12.2305 12.0379C12.2379 10.7856 12.2322 9.53272 12.2328 8.27987C12.2328 8.25001 12.2153 8.20776 12.2486 8.19255C12.2745 8.18072 12.3004 8.21508 12.3246 8.23086C12.791 8.53731 13.2935 8.7587 13.8377 8.88319C14.1543 8.95586 14.4743 8.9998 14.8005 8.99924C14.9035 8.99924 14.9171 8.99417 14.9171 8.89221C14.9176 8.44718 14.8945 7.2315 14.8945 7.1132L14.894 7.11377Z" fill="#58616E"/>
    </g>
    <defs>
    <clipPath id="clip0_275_2468">
    <rect width="20.0011" height="20" fill="white"/>
    </clipPath>
    </defs>
    </svg>
    