<svg width="20" height="16" viewBox="0 0 20 16" fill="none" xmlns="http://www.w3.org/2000/svg">
    <rect y="0.85714" width="20" height="14.2857" rx="2" fill="white"/>
    <mask id="mask0_2042_2494" style="mask-type:luminance" maskUnits="userSpaceOnUse" x="0" y="0" width="20" height="16">
    <rect y="0.85714" width="20" height="14.2857" rx="2" fill="white"/>
    </mask>
    <g mask="url(#mask0_2042_2494)">
    <path fill-rule="evenodd" clip-rule="evenodd" d="M20 0.85714H9.52381V1.80952H20V0.85714ZM20 2.7619H9.52381V3.71428H20V2.7619ZM9.52381 4.66666H20V5.61905H9.52381V4.66666ZM20 6.57143H9.52381V7.52381H20V6.57143ZM0 8.47619H20V9.42857H0V8.47619ZM20 10.3809H0V11.3333H20V10.3809ZM0 12.2857H20V13.2381H0V12.2857ZM20 14.1905H0V15.1429H20V14.1905Z" fill="#E1244A"/>
    <rect y="0.85714" width="11.4286" height="7.61905" fill="#0C3F8E"/>
    <path fill-rule="evenodd" clip-rule="evenodd" d="M4.76193 7.52381C5.43701 7.52381 6.0574 7.28968 6.54634 6.89819C6.28734 6.99481 6.00699 7.04762 5.71431 7.04762C4.39935 7.04762 3.33336 5.98163 3.33336 4.66666C3.33336 3.3517 4.39935 2.28571 5.71431 2.28571C6.00699 2.28571 6.28734 2.33852 6.54634 2.43513C6.0574 2.04365 5.43701 1.80952 4.76193 1.80952C3.18397 1.80952 1.90479 3.08871 1.90479 4.66666C1.90479 6.24462 3.18397 7.52381 4.76193 7.52381ZM6.79263 6.3828L7.61907 5.44762L8.44552 6.3828L8.22964 5.15358L9.47608 5.09051L8.38044 4.49289L9.10827 3.47906L7.95791 3.96305L7.61907 2.7619L7.28023 3.96305L6.12987 3.47906L6.8577 4.49289L5.76207 5.09051L7.0085 5.15358L6.79263 6.3828Z" fill="#FFD34F"/>
    </g>
    </svg>
    