<svg width="16" height="16" viewBox="0 0 16 16" fill="none" xmlns="http://www.w3.org/2000/svg">
    <g clip-path="url(#clip0_2042_2517)">
    <path d="M14.548 0.01C14.5314 0.00866667 14.5174 0 14.5 0H7.33337C6.23071 0 5.33337 0.897333 5.33337 2V2.66667C5.33337 3.03467 5.63204 3.33333 6.00004 3.33333C6.36804 3.33333 6.66671 3.03467 6.66671 2.66667V2C6.66671 1.63267 6.96604 1.33333 7.33337 1.33333H10.4394L10.236 1.40133C9.69604 1.588 9.33337 2.09667 9.33337 2.66667V12.6667H7.33337C6.96604 12.6667 6.66671 12.3673 6.66671 12V10.6667C6.66671 10.2987 6.36804 10 6.00004 10C5.63204 10 5.33337 10.2987 5.33337 10.6667V12C5.33337 13.1027 6.23071 14 7.33337 14H9.33337V14.6667C9.33337 15.402 9.93137 16 10.6667 16C10.8094 16 10.9447 15.9793 11.0914 15.934L15.0967 14.5987C15.6374 14.412 16 13.9033 16 13.3333V1.33333C16 0.556 15.33 -0.0533333 14.548 0.01Z" fill="#0054A5"/>
    <path d="M7.138 6.19533L4.47133 3.52867C4.28067 3.338 3.994 3.28067 3.74467 3.384C3.496 3.48733 3.33333 3.73067 3.33333 4V6H0.666667C0.298667 6 0 6.29867 0 6.66667C0 7.03467 0.298667 7.33333 0.666667 7.33333H3.33333V9.33333C3.33333 9.60267 3.496 9.846 3.74467 9.94933C3.994 10.0527 4.28067 9.99533 4.47133 9.80467L7.138 7.138C7.39867 6.87733 7.39867 6.456 7.138 6.19533Z" fill="#0054A5"/>
    </g>
    <defs>
    <clipPath id="clip0_2042_2517">
    <rect width="16" height="16" fill="white"/>
    </clipPath>
    </defs>
    </svg>
    