<svg width="20" height="20" viewBox="0 0 20 20" fill="none" xmlns="http://www.w3.org/2000/svg">
    <g id="Layer_1" clip-path="url(#clip0_275_2460)">
    <path id="Vector" d="M10.0003 0C4.48613 0 0 4.48613 0 10.0003C0 15.5144 4.48613 20.0006 10.0003 20.0006C15.5144 20.0006 20.0006 15.5144 20.0006 10.0003C20.0006 4.48613 15.5139 0 10.0003 0ZM16.205 16.205C14.6171 17.7919 12.4236 18.7748 9.99972 18.7748C5.15477 18.7748 1.22518 14.8464 1.22518 10.0003C1.22518 7.57753 2.20814 5.38459 3.79609 3.79609C5.38403 2.20758 7.57753 1.22518 10.0003 1.22518C12.423 1.22518 14.6177 2.20814 16.2056 3.79609C17.7936 5.38403 18.7754 7.57753 18.7754 10.0003C18.7754 12.423 17.7941 14.6177 16.2056 16.2056L16.205 16.205Z" fill="#58616E"/>
    <path id="Vector_2" d="M12.0676 5.86396H13.0804V3.73074H11.2824C9.44769 3.73074 8.24898 4.8427 8.24898 6.85537V8.6247H6.4498V10.9461H8.24898V16.5154H10.7591V10.9461H12.6303L12.9863 8.6247H10.7591V7.11787C10.7591 6.48247 11.07 5.8634 12.0676 5.8634V5.86396Z" fill="#58616E"/>
    </g>
    <defs>
    <clipPath id="clip0_275_2460">
    <rect width="20" height="20" fill="white"/>
    </clipPath>
    </defs>
    </svg>
    