<svg width="20" height="20" viewBox="0 0 20 20" fill="none" xmlns="http://www.w3.org/2000/svg">
    <g clip-path="url(#clip0_275_2463)">
    <path d="M10.0003 0C4.48613 0 0 4.48613 0 10.0003C0 15.5144 4.48613 20.0006 10.0003 20.0006C15.5144 20.0006 20.0006 15.5144 20.0006 10.0003C20.0006 4.48613 15.5144 0 10.0003 0ZM16.205 16.205C14.6171 17.7919 12.4225 18.7748 9.99972 18.7748C5.15364 18.7748 1.22518 14.8464 1.22518 10.0003C1.22518 7.57753 2.20814 5.38459 3.79496 3.79609C5.3829 2.20814 7.57753 1.22518 10.0003 1.22518C12.423 1.22518 14.6171 2.20814 16.2056 3.79609C17.7924 5.38403 18.7754 7.57753 18.7754 10.0003C18.7754 12.423 17.7924 14.6177 16.2056 16.2056L16.205 16.205Z" fill="#58616E"/>
    <path d="M9.99972 5.06126C11.6085 5.06126 11.7989 5.06745 12.4343 5.09618C13.0218 5.12322 13.3407 5.22124 13.553 5.30348C13.8341 5.41276 14.0352 5.54344 14.2459 5.75412C14.4566 5.96479 14.5872 6.16589 14.6965 6.44698C14.7788 6.65934 14.8773 6.97817 14.9038 7.56569C14.9325 8.2011 14.9387 8.39149 14.9387 10.0003C14.9387 11.6091 14.9325 11.7995 14.9038 12.4349C14.8768 13.0224 14.7788 13.3412 14.6965 13.5536C14.5872 13.8347 14.4566 14.0358 14.2459 14.2464C14.0352 14.4571 13.8341 14.5878 13.553 14.6971C13.3407 14.7793 13.0218 14.8779 12.4343 14.9044C11.7989 14.9331 11.6085 14.9393 9.99972 14.9393C8.39094 14.9393 8.20054 14.9331 7.56514 14.9044C6.97761 14.8773 6.65879 14.7793 6.44642 14.6971C6.16533 14.5878 5.96424 14.4571 5.75356 14.2464C5.54289 14.0358 5.4122 13.8347 5.30292 13.5536C5.22068 13.3412 5.1221 13.0224 5.09563 12.4349C5.0669 11.7995 5.0607 11.6091 5.0607 10.0003C5.0607 8.39149 5.0669 8.2011 5.09563 7.56569C5.12266 6.97817 5.22068 6.65934 5.30292 6.44698C5.4122 6.16589 5.54289 5.96479 5.75356 5.75412C5.96424 5.54344 6.16533 5.41276 6.44642 5.30348C6.65879 5.22124 6.97761 5.12266 7.56514 5.09618C8.20054 5.06745 8.39094 5.06126 9.99972 5.06126ZM9.99972 3.97578C8.36333 3.97578 8.15829 3.98254 7.51557 4.01183C6.87453 4.04112 6.43628 4.14308 6.05324 4.29179C5.65724 4.44557 5.32095 4.65174 4.98634 4.9869C4.65118 5.32207 4.44558 5.65779 4.29123 6.05379C4.14252 6.43684 4.04056 6.87509 4.01127 7.51612C3.98198 8.15885 3.97522 8.36389 3.97522 10.0003C3.97522 11.6367 3.98198 11.8417 4.01127 12.4844C4.04056 13.1255 4.14252 13.5637 4.29123 13.9468C4.44501 14.3428 4.65118 14.6791 4.98634 15.0137C5.32151 15.3488 5.65724 15.5544 6.05324 15.7088C6.43628 15.8575 6.87453 15.9594 7.51557 15.9887C8.15829 16.018 8.36333 16.0248 9.99972 16.0248C11.6361 16.0248 11.8412 16.018 12.4839 15.9887C13.1249 15.9594 13.5632 15.8575 13.9462 15.7088C14.3422 15.555 14.6785 15.3488 15.0131 15.0137C15.3483 14.6785 15.5539 14.3428 15.7082 13.9468C15.8569 13.5637 15.9589 13.1255 15.9882 12.4844C16.0175 11.8417 16.0242 11.6367 16.0242 10.0003C16.0242 8.36389 16.0175 8.15885 15.9882 7.51612C15.9589 6.87509 15.8569 6.43684 15.7082 6.05379C15.5544 5.65779 15.3483 5.3215 15.0131 4.9869C14.6779 4.65174 14.3422 4.44613 13.9462 4.29179C13.5632 4.14308 13.1249 4.04112 12.4839 4.01183C11.8412 3.98254 11.6361 3.97578 9.99972 3.97578Z" fill="#58616E"/>
    <path d="M9.99972 6.90663C8.29122 6.90663 6.90607 8.29179 6.90607 10.0003C6.90607 11.7088 8.29122 13.0939 9.99972 13.0939C11.7082 13.0939 13.0934 11.7088 13.0934 10.0003C13.0934 8.29179 11.7082 6.90663 9.99972 6.90663ZM9.99972 12.009C8.89058 12.009 7.99155 11.11 7.99155 10.0008C7.99155 8.8917 8.89058 7.99268 9.99972 7.99268C11.1089 7.99268 12.0079 8.8917 12.0079 10.0008C12.0079 11.11 11.1089 12.009 9.99972 12.009Z" fill="#58616E"/>
    <path d="M13.9198 6.94999C14.0115 6.56122 13.7707 6.17167 13.382 6.07991C12.9932 5.98815 12.6037 6.22893 12.5119 6.6177C12.4201 7.00648 12.6609 7.39603 13.0497 7.48778C13.4385 7.57954 13.828 7.33877 13.9198 6.94999Z" fill="#58616E"/>
    </g>
    <defs>
    <clipPath id="clip0_275_2463">
    <rect width="20" height="20" fill="white"/>
    </clipPath>
    </defs>
    </svg>
    