<svg width="399" height="29" viewBox="0 0 399 29" fill="none" xmlns="http://www.w3.org/2000/svg">
    <g clip-path="url(#clip0_198_7676)">
    <path d="M22.6295 19.1488C21.7067 19.1488 21.0484 19.1058 20.6546 19.0228C20.2608 18.9397 19.5278 18.7048 18.4526 18.3209C17.9668 18.6647 17.5328 18.8881 17.1504 18.997C16.7681 19.1058 16.1961 19.1603 15.4343 19.1603H13.3847C13.3847 21.0997 12.7637 22.4948 11.5219 23.3485C10.441 24.0933 8.80822 24.4658 6.62637 24.4658C4.58824 24.4658 3.01582 24.0962 1.91483 23.3571C0.810965 22.618 0.259033 21.5666 0.259033 20.203C0.259033 19.0399 0.434386 17.98 0.787967 17.0174C1.17317 15.9546 1.9292 14.5767 3.05319 12.8807L3.80922 13.4079C2.97844 14.8202 2.43514 15.8458 2.17929 16.4789C1.92345 17.1148 1.79697 17.7709 1.79697 18.4469C1.79697 19.3235 2.26841 20.0426 3.21129 20.5984C4.15417 21.1541 5.39314 21.432 6.9282 21.432C8.46326 21.432 9.70798 21.1427 10.74 20.5668C11.772 19.991 12.2865 19.2834 12.2865 18.4469C12.2865 17.9284 12.1974 17.4156 12.0163 16.9057C11.8352 16.3958 11.4471 15.5822 10.8521 14.4592L11.9588 11.0731C12.5539 12.0757 12.9477 12.9037 13.1403 13.5568C13.307 14.124 13.3933 14.8574 13.3933 15.7512H14.5518C15.8195 15.7512 16.702 15.6022 17.1993 15.3072C17.6995 15.0092 17.9467 14.4764 17.9467 13.7087C17.9467 13.3735 17.9783 13.13 18.0416 12.9753C18.1048 12.8206 18.2543 12.6602 18.4871 12.4911L19.0793 12.0786C19.0966 12.2362 19.1081 12.4539 19.1167 12.7232C19.1253 12.9953 19.1282 13.1729 19.1282 13.256C19.1282 13.7172 19.0621 14.3274 18.927 15.0866C19.3122 15.2126 19.7002 15.3272 20.0912 15.4304C20.4821 15.5335 20.8472 15.6108 21.1922 15.6624C21.1922 15.3616 21.0887 14.9949 20.8788 14.5595C20.669 14.124 20.5655 13.8404 20.5655 13.7058C20.5655 13.6055 20.5799 13.5081 20.6086 13.4164C20.6374 13.3248 20.7064 13.2045 20.8156 13.0526L21.9971 11.371C22.2242 11.8981 22.3852 12.3765 22.4829 12.8063C22.5778 13.236 22.6266 13.7745 22.6266 14.4162V19.1431L22.6295 19.1488Z" fill="#374151"/>
    <path d="M29.6265 19.1631H21.75V15.7512H28.3674C28.2754 15.184 28.1058 14.7027 27.8644 14.3103C27.7379 14.0925 27.4447 13.7173 26.9847 13.1816L27.9908 10.1965C28.6204 10.907 29.0487 11.6518 29.2816 12.4281C29.5115 13.2045 29.6265 14.359 29.6265 15.8887V19.1603V19.1631ZM29.4253 21.369L28.0426 23.9272L26.2546 22.9245L25.2484 24.9069L22.9085 23.6293L24.2164 21.1971L26.0792 22.1253L27.1371 20.0942L29.4282 21.3719L29.4253 21.369Z" fill="#374151"/>
    <path d="M35.6661 19.1631H28.7468V15.7512H34.1569L32.6333 7.2372L31.8284 6.71009C31.8284 6.21735 31.9032 5.71888 32.0555 5.21755C32.2481 4.58158 32.5758 3.82529 33.0358 2.94868L33.6136 3.24948C33.6136 3.30104 33.5963 3.43282 33.5647 3.65054C33.5647 3.92555 33.7401 4.19484 34.0937 4.45267C34.4041 4.68758 34.8986 4.9454 35.577 5.22901C35.5022 5.76472 35.3901 6.2861 35.2435 6.79603C35.0969 7.30595 34.9302 7.76145 34.7462 8.16251L34.292 7.98776L35.6632 15.7483V19.1603L35.6661 19.1631Z" fill="#374151"/>
    <path d="M46.2997 19.4496C46.2997 19.9595 46.0065 20.6356 45.4201 21.475C44.8336 22.3143 44.1437 23.0449 43.3561 23.6636C42.4822 24.3483 41.7376 24.6921 41.1167 24.6921C40.3779 24.6921 39.5845 24.483 38.7394 24.0647C38.0006 23.7066 36.8479 22.9876 35.2783 21.9075L35.8073 21.1312C36.5633 21.6325 37.1698 21.9706 37.6327 22.1453C38.0926 22.3201 38.5928 22.4089 39.1303 22.4089C39.7081 22.4089 40.2888 22.2456 40.8666 21.919C41.4444 21.5924 42.235 20.988 43.2325 20.0999C44.6238 18.8623 45.3223 17.9112 45.3223 17.2409C45.3223 16.9057 45.1872 16.4674 44.9199 15.9231C44.618 15.3043 44.2501 14.7915 43.8131 14.3819L44.5174 10.9957C45.0866 11.5802 45.5293 12.2534 45.8398 13.0154C46.1502 13.7774 46.3054 14.6426 46.3054 15.6108V19.4467L46.2997 19.4496Z" fill="#374151"/>
    <path d="M54.1502 19.1631H45.417V15.7512H52.9658C52.9658 15.0236 52.9457 14.5051 52.9026 14.1957C52.8364 13.7201 52.6956 13.3047 52.4886 12.9552C52.2213 13.4738 51.8591 13.8691 51.4077 14.147C50.9536 14.422 50.4735 14.5624 49.9618 14.5624C49.292 14.5624 48.7257 14.3418 48.2629 13.8977C47.8029 13.4537 47.5701 12.8979 47.5701 12.2305C47.5701 11.245 47.8719 10.0733 48.4756 8.71828C49.1368 7.23148 49.8094 6.48664 50.4879 6.48664C51.3675 6.48664 52.1983 7.25153 52.9802 8.7813C53.7592 10.3111 54.1502 11.9297 54.1502 13.6342V19.1631ZM49.3926 4.19198L48.674 5.39518L47.0383 4.94255L47.7167 3.73935L49.3898 4.19198H49.3926ZM49.9216 2.47314L49.2029 3.67633L47.5672 3.2237L48.2456 2.02051L49.9187 2.47314H49.9216ZM51.4192 10.7236C51.1922 10.3311 50.9938 10.0561 50.8213 9.90142C50.6488 9.74672 50.462 9.66937 50.2608 9.66937C50.0078 9.66937 49.7836 9.7811 49.5824 10.0074C49.3811 10.2337 49.2805 10.4973 49.2805 10.7981C49.2805 10.99 49.3581 11.1504 49.5134 11.2822C49.6686 11.4111 49.8669 11.477 50.1113 11.477C50.3039 11.477 50.4994 11.4197 50.6977 11.308C50.8961 11.1963 51.1347 11.0015 51.4221 10.7236H51.4192ZM52.1235 3.08619L51.4049 4.28938L49.7692 3.83676L50.4476 2.63356L52.1207 3.08619H52.1235Z" fill="#374151"/>
    <path d="M70.2307 18.298C70.2307 19.7361 69.6184 21.157 68.3938 22.5607C67.1692 23.9644 65.9619 24.6663 64.7689 24.6663C64.0733 24.6663 63.3115 24.4457 62.4864 24.0017C61.6614 23.5576 60.3908 22.6839 58.6804 21.3804L59.2094 20.6528C60.1149 21.2544 60.8565 21.6554 61.4372 21.856C61.9144 22.0221 62.4577 22.1081 63.0614 22.1081C63.8749 22.1081 64.6798 21.8818 65.4761 21.432C66.4161 20.8963 67.3877 20.0369 68.3967 18.848C68.0431 18.8996 67.7499 18.9225 67.5171 18.9225C66.6863 18.9225 66.0251 18.6532 65.5364 18.1146C65.0449 17.5761 64.8005 16.8427 64.8005 15.9145C64.8005 14.6597 65.0909 13.4537 65.6687 12.2906C66.2982 11.0273 67.014 10.397 67.8189 10.397C68.4887 10.397 69.0608 10.8525 69.5293 11.7635C69.9979 12.6745 70.2336 13.7745 70.2336 15.0608V18.2951L70.2307 18.298ZM68.7215 15.7512C68.4858 14.4048 68.0086 13.7316 67.2871 13.7316C67.0284 13.7316 66.8185 13.8347 66.6633 14.0381C66.5081 14.2415 66.4305 14.4678 66.4305 14.7084C66.4305 15.0092 66.5972 15.2585 66.9278 15.4533C67.2584 15.6509 67.6982 15.7484 68.2415 15.7484H68.7187L68.7215 15.7512Z" fill="#374151"/>
    <path d="M77.2249 19.1631H69.3484V15.7512H75.9658C75.8738 15.184 75.7071 14.7027 75.4628 14.3103C75.3363 14.0925 75.0431 13.7173 74.5831 13.1816L75.5892 10.1965C76.2188 10.907 76.6471 11.6518 76.88 12.4281C77.1099 13.2045 77.2249 14.359 77.2249 15.8887V19.1603V19.1631ZM77.0237 21.369L75.641 23.9272L73.853 22.9245L72.8468 24.9069L70.5069 23.6293L71.8148 21.1971L73.6776 22.1253L74.7355 20.0942L77.0266 21.3719L77.0237 21.369Z" fill="#374151"/>
    <path d="M91.1667 19.1631H90.2469C89.7179 19.1631 89.2206 18.7334 88.7492 17.8711C88.2461 16.9515 87.9931 15.8973 87.9931 14.7113C87.2544 16.9086 86.2224 18.4183 84.8971 19.2376C83.6151 20.0311 81.6517 20.4293 79.0099 20.4293L77.5496 20.4036V19.6014C78.1532 19.3923 78.7512 19.186 79.3433 18.9798C79.9355 18.7764 80.3782 18.5988 80.6714 18.4469C82.3818 17.5875 83.5403 16.9601 84.144 16.5648C85.2191 15.8715 85.9924 15.1439 86.4725 14.3819C87.0359 13.4881 87.3147 12.3937 87.3147 11.096C87.3147 10.3197 87.2544 9.56338 87.1336 8.82714C87.0129 8.0909 86.8893 7.36039 86.7628 6.63274C86.7628 6.06552 87.2486 4.91103 88.2231 3.17213C88.6601 4.60164 88.936 6.46945 89.0539 8.77844C89.12 10.4085 89.1919 12.0385 89.2666 13.6686C89.4017 15.0551 89.7265 15.7512 90.2469 15.7512H91.1667V19.1631ZM86.2339 12.8807C86.2339 13.1328 86.1965 13.362 86.1217 13.5769C86.047 13.7917 85.909 14.0668 85.7078 14.4105C85.2134 13.299 84.6672 12.388 84.0721 11.6776C83.4771 10.9671 82.7728 10.3999 81.9593 9.97303C81.9593 10.3311 81.9161 10.5947 81.8328 10.758C81.7494 10.9213 81.6316 11.0015 81.4792 11.0015C81.2262 11.0015 80.7663 10.7637 80.0965 10.2882C79.375 9.77823 78.8546 9.28836 78.5356 8.82141C78.3085 8.49483 78.1389 8.02214 78.0268 7.40336C77.9146 6.78458 77.8571 6.28038 77.8571 5.88505C77.8571 5.28345 78.0153 4.98265 78.3343 4.98265C78.8288 4.98265 79.5676 5.27199 80.5478 5.85353C81.5281 6.43508 82.4508 7.13121 83.3161 7.94193C85.2622 9.7324 86.2367 11.3768 86.2367 12.8836L86.2339 12.8807Z" fill="#374151"/>
    <path d="M101.346 19.1488C100.466 19.1488 99.4286 18.9769 98.2385 18.636C97.1892 18.3352 96.2665 17.98 95.4702 17.5703C94.9844 18.298 94.3836 18.7735 93.6707 18.9998C93.3257 19.1087 92.8571 19.1631 92.2621 19.1631H89.7698V15.7512H92.2621C93.0181 15.7512 93.616 15.6596 94.0616 15.4762C94.6308 15.2413 95.0275 14.8374 95.246 14.2587C95.7232 13.1959 96.3355 12.325 97.0829 11.6375C97.744 11.0273 98.3075 10.7207 98.7703 10.7207C99.1986 10.7207 99.7275 11.3653 100.357 12.6516C101.018 14.0152 101.352 15.2671 101.352 16.413V19.1459L101.346 19.1488ZM98.9945 15.3645C98.9945 15.1811 98.8134 14.8632 98.4541 14.4105C98.0516 13.9092 97.7038 13.6571 97.4106 13.6571C97.0829 13.6571 96.8069 14.0324 96.5798 14.7858C97.0167 14.952 97.3473 15.078 97.5744 15.1611C98.2528 15.4132 98.6352 15.5364 98.7185 15.5364C98.9025 15.5364 98.9945 15.4791 98.9945 15.3616V15.3645Z" fill="#374151"/>
    <path d="M122.535 19.1631H111.979C110.964 19.1631 110.292 19.1459 109.958 19.1115C109.628 19.0772 109.268 18.9912 108.883 18.848C108.196 18.6131 107.63 18.1375 107.184 17.4185C106.739 16.6994 106.517 15.8973 106.517 15.0121C106.517 14.6683 106.535 14.3618 106.566 14.0897C106.601 13.8175 106.667 13.4995 106.767 13.13C106.911 12.5857 107.069 12.1302 107.245 11.7635C107.42 11.3968 107.73 10.8983 108.176 10.271L108.88 10.7723C108.521 11.4312 108.274 11.9554 108.144 12.3393C108.015 12.7232 107.949 13.1042 107.949 13.4795C107.949 13.955 108.101 14.3847 108.409 14.7657C108.716 15.1467 109.116 15.396 109.61 15.5106C109.904 15.585 110.289 15.6452 110.76 15.6853C111.235 15.7283 111.732 15.7483 112.252 15.7483H121.35C121.115 15.1124 120.922 14.6626 120.773 14.3933C120.597 14.0753 120.31 13.6714 119.916 13.1758L121.049 10.2681C121.678 11.1619 122.089 11.9812 122.282 12.726C122.449 13.3792 122.535 14.3389 122.535 15.6108V19.1602V19.1631ZM118.094 7.26297L116.711 9.82119L114.923 8.81853L113.917 10.8009L111.577 9.52325L112.885 7.09109L114.747 8.01926L115.805 5.98816L118.096 7.26583L118.094 7.26297Z" fill="#374151"/>
    <path d="M130.854 19.1631H125.154C124.599 19.1631 124.176 19.0457 123.883 18.8108C123.524 18.5272 123.343 18.0631 123.343 17.4185C123.343 17.0518 123.363 16.6536 123.4 16.2268C123.438 15.7999 123.495 15.3702 123.57 14.9348L124.047 14.909C124.113 15.2012 124.263 15.4161 124.493 15.5478C124.723 15.6825 125.001 15.7484 125.329 15.7484H129.658C129.466 14.5194 129.129 13.5368 128.652 12.8005C128.258 12.1904 127.709 11.6632 127.005 11.2192L127.911 7.30597C129 8.11669 129.773 9.16232 130.225 10.44C130.644 11.6203 130.854 13.1816 130.854 15.1296V19.1545V19.1631Z" fill="#374151"/>
    <path d="M136.376 19.1631H134.614C133.634 19.1631 132.924 18.7621 132.487 17.9599C132.001 17.0747 131.757 15.5822 131.757 13.4823V9.91C131.757 9.09928 131.645 8.46904 131.417 8.01641C131.308 7.79869 131.055 7.48643 130.661 7.07677L132.021 3.94274C132.507 4.61023 132.846 5.27198 133.039 5.92514C133.266 6.68717 133.378 7.65545 133.378 8.83286V11.3023C133.378 13.0498 133.496 14.2615 133.731 14.9376C133.915 15.4819 134.209 15.7541 134.611 15.7541H136.373V19.166L136.376 19.1631Z" fill="#374151"/>
    <path d="M143.373 19.1631H135.497V15.7512H142.114C142.022 15.184 141.855 14.7027 141.611 14.3103C141.484 14.0925 141.191 13.7173 140.731 13.1816L141.737 10.1965C142.367 10.907 142.795 11.6518 143.028 12.4281C143.258 13.2045 143.373 14.359 143.373 15.8887V19.1603V19.1631ZM143.172 21.369L141.789 23.9272L140.001 22.9245L138.995 24.9069L136.655 23.6293L137.963 21.1971L139.826 22.1253L140.884 20.0942L143.175 21.3719L143.172 21.369Z" fill="#374151"/>
    <path d="M150.37 19.1631H142.494V15.7512H149.111C149.019 15.184 148.852 14.7027 148.608 14.3102C148.482 14.0925 148.188 13.7172 147.728 13.1815L148.734 10.1965C149.364 10.9069 149.792 11.6518 150.025 12.4281C150.255 13.2044 150.37 14.3589 150.37 15.8887V19.1602V19.1631ZM150.169 5.75898L148.786 8.3172L146.998 7.31453L145.992 9.29694L143.652 8.01926L144.96 5.5871L146.823 6.51527L147.881 4.48417L150.172 5.76184L150.169 5.75898Z" fill="#374151"/>
    <path d="M157.364 19.1631H149.488V15.7512H156.105C156.013 15.184 155.846 14.7027 155.602 14.3103C155.475 14.0925 155.182 13.7173 154.722 13.1816L155.728 10.1965C156.358 10.907 156.786 11.6518 157.019 12.4281C157.249 13.2045 157.364 14.359 157.364 15.8887V19.1603V19.1631ZM157.163 21.369L155.78 23.9272L153.992 22.9245L152.986 24.9069L150.646 23.6293L151.954 21.1971L153.817 22.1253L154.875 20.0942L157.166 21.3719L157.163 21.369Z" fill="#374151"/>
    <path d="M173.042 19.1631C172.102 19.1631 171.323 19.0972 170.702 18.9626C170.082 18.828 169.469 18.616 168.866 18.3238C168.38 18.6675 167.946 18.891 167.563 18.9998C167.181 19.1087 166.609 19.1631 165.847 19.1631H163.798C163.234 19.1631 162.791 19.017 162.464 18.7248C162.136 18.4326 161.843 17.9485 161.584 17.2695C161.121 17.9714 160.607 18.4727 160.038 18.7735C159.552 19.0342 158.968 19.1631 158.29 19.1631H156.49V15.7512H158.29C159.169 15.7512 159.905 15.5049 160.492 15.0121C161.254 14.3676 161.636 13.3907 161.636 12.0786L162.467 12.2047C162.449 12.4711 162.432 12.7776 162.418 13.1214C162.4 13.4652 162.392 13.8433 162.392 14.2616C162.392 14.6798 162.538 15.0436 162.832 15.3272C163.125 15.6108 163.461 15.7541 163.838 15.7541H165.384C166.408 15.7541 167.138 15.6108 167.575 15.3272C168.104 14.9835 168.368 14.3446 168.368 13.4079C168.368 13.2073 168.432 13.0269 168.558 12.8693C168.633 12.7776 168.788 12.6401 169.024 12.4568L169.501 12.0815C169.518 12.239 169.53 12.4568 169.538 12.7261C169.547 12.9982 169.55 13.1758 169.55 13.2589C169.55 13.7201 169.484 14.3303 169.349 15.0895C169.659 15.2413 170.007 15.3702 170.392 15.4791C170.777 15.5879 171.185 15.671 171.614 15.7312C171.614 15.4476 171.507 15.078 171.3 14.6282C171.091 14.1756 170.987 13.8719 170.987 13.7115C170.987 13.4938 171.016 13.3276 171.076 13.2102C171.093 13.1672 171.185 13.0383 171.352 12.8206L172.422 11.3796C172.649 11.9067 172.81 12.3851 172.904 12.8149C172.999 13.2446 173.048 13.7831 173.048 14.4248V19.1631H173.042Z" fill="#374151"/>
    <path d="M177.182 15.5134C177.182 16.2583 177.093 16.9372 176.917 17.5503C176.742 18.1662 176.403 18.9912 175.9 20.0254L175.144 19.7246C175.345 18.6532 175.446 17.7852 175.446 17.1177C175.446 16.6078 175.403 15.8601 175.319 14.8746C175.236 13.8891 175.129 12.9123 175.006 11.9468C174.879 10.9814 174.675 9.8298 174.388 8.49196C174.287 8.02501 174.238 7.7013 174.238 7.52655C174.238 7.26872 174.368 6.82755 174.629 6.20303C174.891 5.57852 175.253 4.82509 175.724 3.93989L176.481 8.38024C176.756 10.0676 176.949 11.5315 177.058 12.769C177.142 13.723 177.185 14.6368 177.185 15.5163L177.182 15.5134Z" fill="#374151"/>
    <path d="M199.302 19.1631H188.747C187.732 19.1631 187.059 19.1459 186.726 19.1115C186.395 19.0772 186.036 18.9912 185.651 18.848C184.964 18.6131 184.397 18.1375 183.952 17.4185C183.506 16.6994 183.285 15.8973 183.285 15.0121C183.285 14.6683 183.302 14.3618 183.334 14.0897C183.368 13.8175 183.434 13.4995 183.535 13.13C183.679 12.5857 183.837 12.1302 184.012 11.7635C184.188 11.3968 184.498 10.8983 184.944 10.271L185.648 10.7723C185.289 11.4312 185.041 11.9554 184.912 12.3393C184.783 12.7232 184.716 13.1042 184.716 13.4795C184.716 13.955 184.869 14.3847 185.176 14.7657C185.484 15.1467 185.884 15.396 186.378 15.5106C186.671 15.585 187.056 15.6452 187.528 15.6853C188.002 15.7283 188.5 15.7483 189.02 15.7483H198.118C197.882 15.1124 197.69 14.6626 197.54 14.3933C197.365 14.0753 197.077 13.6714 196.684 13.1758L197.816 10.2681C198.446 11.1619 198.857 11.9812 199.049 12.726C199.216 13.3792 199.302 14.3389 199.302 15.6108V19.1602V19.1631ZM194.861 7.26297L193.478 9.82119L191.69 8.81853L190.684 10.8009L188.344 9.52325L189.652 7.09109L191.515 8.01926L192.573 5.98816L194.864 7.26583L194.861 7.26297Z" fill="#374151"/>
    <path d="M207.621 19.1631H201.921C201.366 19.1631 200.944 19.0457 200.65 18.8108C200.291 18.5272 200.11 18.0631 200.11 17.4185C200.11 17.0518 200.13 16.6536 200.167 16.2268C200.205 15.7999 200.262 15.3702 200.337 14.9348L200.814 14.909C200.88 15.2012 201.03 15.4161 201.26 15.5478C201.49 15.6825 201.769 15.7484 202.096 15.7484H206.425C206.233 14.5194 205.897 13.5368 205.419 12.8005C205.026 12.1904 204.476 11.6632 203.772 11.2192L204.678 7.30597C205.767 8.11669 206.54 9.16232 206.992 10.44C207.411 11.6203 207.621 13.1816 207.621 15.1296V19.1545V19.1631Z" fill="#374151"/>
    <path d="M213.144 19.1631H211.381C210.401 19.1631 209.691 18.762 209.254 17.9599C208.768 17.0747 208.524 15.5822 208.524 13.4823V9.90999C208.524 9.09927 208.412 8.46903 208.185 8.0164C208.076 7.79868 207.823 7.48642 207.429 7.07676L208.774 3.95419C209.268 4.61595 209.613 5.27198 209.806 5.92227C210.033 6.68429 210.145 7.65258 210.145 8.82999V11.2994C210.145 13.0469 210.263 14.2587 210.499 14.9348C210.683 15.4791 210.976 15.7512 211.378 15.7512H213.141V19.1631H213.144Z" fill="#374151"/>
    <path d="M225.602 13.1815L224.194 16.7424C221.937 17.4357 220.071 17.9714 218.594 18.3467C217.312 18.6733 216.228 18.8996 215.348 19.0228C214.702 19.1144 214.052 19.1603 213.397 19.1603H212.264V15.7484H213.624C213.868 15.7484 214.046 15.7455 214.164 15.7369C214.417 15.7025 214.664 15.6796 214.906 15.6624C214.486 15.035 214.204 14.528 214.063 14.1384C213.92 13.7488 213.851 13.3133 213.851 12.8292C213.851 11.583 214.368 10.4944 215.406 9.56338C216.441 8.63234 217.651 8.16538 219.037 8.16538C219.968 8.16538 220.856 8.47191 221.704 9.0821C222.483 9.64932 223.055 10.3397 223.415 11.1504L222.886 11.6031C222.222 11.351 221.696 11.1906 221.308 11.1132C220.917 11.0387 220.437 11.0015 219.867 11.0015C218.827 11.0015 217.924 11.0846 217.162 11.2536C216.196 11.4627 215.716 11.7635 215.716 12.156C215.716 12.7318 216.883 13.6857 219.215 15.015L225.608 13.1844L225.602 13.1815Z" fill="#374151"/>
    <path d="M245.48 18.5472C245.48 19.7017 245.368 20.627 245.141 21.3231C244.914 22.0221 244.543 22.5836 244.029 23.0105C243.514 23.4373 242.758 23.7868 241.764 24.0561C240.769 24.3254 239.743 24.4629 238.688 24.4629C236.65 24.4629 235.08 24.0933 233.976 23.3542C232.872 22.6151 232.32 21.5638 232.32 20.2002C232.32 19.0371 232.496 17.9771 232.849 17.0146C233.234 15.9517 233.99 14.5738 235.114 12.8779L235.87 13.405C235.04 14.8173 234.496 15.8429 234.241 16.476C233.985 17.112 233.858 17.768 233.858 18.4441C233.858 19.3207 234.33 20.0397 235.273 20.5955C236.215 21.1512 237.454 21.4291 238.989 21.4291C240.525 21.4291 241.769 21.1398 242.801 20.564C243.833 19.9882 244.348 19.2806 244.348 18.4441C244.348 17.9255 244.259 17.4128 244.078 16.9028C243.896 16.3929 243.508 15.5793 242.913 14.4563L244.02 11.0702C244.607 12.133 244.969 12.8635 245.101 13.2646C245.354 13.9923 245.478 14.9147 245.478 16.0348V18.5415L245.48 18.5472ZM241.341 8.68102L239.832 11.4885L236.888 9.9587L238.412 7.12547L241.344 8.68102H241.341Z" fill="#374151"/>
    <path d="M249.62 15.5134C249.62 16.2583 249.531 16.9372 249.355 17.5503C249.18 18.1662 248.841 18.9912 248.338 20.0254L247.582 19.7246C247.783 18.6532 247.884 17.7852 247.884 17.1177C247.884 16.6078 247.84 15.8601 247.757 14.8746C247.674 13.8891 247.567 12.9123 247.444 11.9468C247.317 10.9814 247.113 9.8298 246.826 8.49196C246.725 8.02501 246.676 7.7013 246.676 7.52655C246.676 7.26872 246.806 6.82755 247.067 6.20304C247.329 5.57852 247.691 4.82509 248.162 3.93989L248.918 8.38024C249.194 10.0676 249.387 11.5315 249.496 12.769C249.58 13.723 249.623 14.6368 249.623 15.5163L249.62 15.5134Z" fill="#374151"/>
    <path d="M258.871 19.1631H253.17C252.615 19.1631 252.193 19.0457 251.9 18.8108C251.54 18.5272 251.359 18.0631 251.359 17.4185C251.359 17.0518 251.379 16.6536 251.417 16.2268C251.454 15.7999 251.511 15.3702 251.586 14.9348L252.063 14.909C252.13 15.2012 252.279 15.4161 252.509 15.5478C252.739 15.6825 253.018 15.7484 253.346 15.7484H257.675C257.482 14.5194 257.146 13.5368 256.669 12.8005C256.275 12.1904 255.726 11.6632 255.021 11.2192L255.927 7.30597C257.016 8.11669 257.79 9.16232 258.241 10.44C258.661 11.6203 258.871 13.1816 258.871 15.1296V19.1545V19.1631Z" fill="#374151"/>
    <path d="M272.611 19.1631L270.976 19.1517C269.441 19.1517 268.081 19.2806 266.899 19.5413C265.718 19.802 265.126 20.097 265.126 20.4322C265.454 21.4349 265.744 22.3745 266 23.254C266.256 24.1306 266.382 24.9642 266.382 25.7492C266.382 26.3164 266.325 26.7776 266.212 27.1271C266.1 27.4795 265.888 27.8633 265.577 28.2816C265.485 27.1787 265.278 26.0213 264.962 24.8095C264.853 24.3827 264.58 23.486 264.143 22.1138C263.875 21.2687 263.74 20.7101 263.74 20.4322C263.74 20.0397 263.849 19.5499 264.068 18.9655C264.243 18.4899 264.445 18.0659 264.672 17.6992C264.939 17.281 265.408 16.9515 266.074 16.708C266.741 16.4645 267.759 16.2697 269.124 16.1179C268.455 15.1811 267.865 14.7142 267.362 14.7142C267.144 14.7142 266.94 14.7973 266.747 14.9663C266.555 15.1353 266.238 15.502 265.804 16.0692L265.201 15.7684C265.569 14.4907 266.026 13.5053 266.566 12.8148C267.106 12.1244 267.701 11.7807 268.345 11.7807C268.909 11.7807 269.533 12.1015 270.22 12.7461C270.907 13.3907 271.706 14.3933 272.611 15.7541V19.166V19.1631Z" fill="#374151"/>
    <path d="M286.551 19.1631H285.631C285.102 19.1631 284.604 18.7334 284.133 17.8711C283.63 16.9515 283.377 15.8973 283.377 14.7113C282.638 16.9086 281.606 18.4183 280.281 19.2376C278.999 20.0311 277.035 20.4293 274.394 20.4293L272.933 20.4036V19.6014C273.537 19.3923 274.135 19.186 274.727 18.9798C275.319 18.7764 275.762 18.5988 276.055 18.4469C277.766 17.5875 278.924 16.9601 279.528 16.5648C280.603 15.8715 281.376 15.1439 281.856 14.3819C282.42 13.4881 282.699 12.3937 282.699 11.096C282.699 10.3197 282.638 9.56338 282.517 8.82714C282.397 8.0909 282.273 7.36039 282.147 6.63274C282.147 6.06552 282.632 4.91103 283.607 3.17213C284.044 4.60164 284.32 6.46945 284.438 8.77844C284.504 10.4085 284.576 12.0385 284.65 13.6686C284.786 15.0551 285.11 15.7512 285.631 15.7512H286.551V19.1631ZM281.621 12.8807C281.621 13.1328 281.583 13.362 281.508 13.5769C281.434 13.7917 281.296 14.0668 281.094 14.4105C280.6 13.299 280.054 12.388 279.459 11.6776C278.864 10.9671 278.159 10.3999 277.346 9.97303C277.346 10.3311 277.303 10.5947 277.219 10.758C277.136 10.9213 277.018 11.0015 276.866 11.0015C276.613 11.0015 276.153 10.7637 275.483 10.2882C274.762 9.77823 274.241 9.28836 273.922 8.82141C273.695 8.49483 273.526 8.02214 273.413 7.40336C273.301 6.78458 273.244 6.28038 273.244 5.88505C273.244 5.28345 273.402 4.98265 273.721 4.98265C274.215 4.98265 274.954 5.27199 275.934 5.85353C276.915 6.43508 277.837 7.13121 278.703 7.94193C280.649 9.7324 281.623 11.3768 281.623 12.8836L281.621 12.8807Z" fill="#374151"/>
    <path d="M301.714 19.1631C300.774 19.1631 299.995 19.0972 299.374 18.9626C298.753 18.828 298.141 18.616 297.537 18.3238C297.052 18.6675 296.618 18.891 296.235 18.9998C295.853 19.1087 295.281 19.1631 294.519 19.1631H292.469C291.906 19.1631 291.463 19.017 291.136 18.7248C290.808 18.4326 290.515 17.9485 290.256 17.2695C289.793 17.9714 289.279 18.4727 288.709 18.7735C288.224 19.0342 287.64 19.1631 286.962 19.1631H285.162V15.7512H286.962C287.841 15.7512 288.577 15.5049 289.164 15.0121C289.925 14.3676 290.308 13.3907 290.308 12.0786L291.138 12.2047C291.121 12.4711 291.104 12.7776 291.09 13.1214C291.072 13.4652 291.064 13.8433 291.064 14.2616C291.064 14.6798 291.21 15.0436 291.504 15.3272C291.797 15.6108 292.133 15.7541 292.51 15.7541H294.056C295.08 15.7541 295.81 15.6108 296.247 15.3272C296.776 14.9835 297.04 14.3446 297.04 13.4079C297.04 13.2073 297.103 13.0269 297.23 12.8693C297.305 12.7776 297.46 12.6401 297.696 12.4568L298.173 12.0815C298.19 12.239 298.201 12.4568 298.21 12.7261C298.219 12.9982 298.222 13.1758 298.222 13.2589C298.222 13.7201 298.155 14.3303 298.02 15.0895C298.331 15.2413 298.679 15.3702 299.064 15.4791C299.449 15.5879 299.857 15.671 300.286 15.7312C300.286 15.4476 300.179 15.078 299.972 14.6282C299.762 14.1756 299.659 13.8719 299.659 13.7115C299.659 13.4938 299.688 13.3276 299.748 13.2102C299.765 13.1672 299.857 13.0383 300.024 12.8206L301.093 11.3796C301.32 11.9067 301.481 12.3851 301.576 12.8149C301.671 13.2446 301.72 13.7831 301.72 14.4248V19.1631H301.714Z" fill="#374151"/>
    <path d="M305.854 15.5134C305.854 16.2583 305.765 16.9372 305.589 17.5503C305.414 18.1662 305.075 18.9912 304.572 20.0254L303.816 19.7246C304.017 18.6532 304.118 17.7852 304.118 17.1177C304.118 16.6078 304.074 15.8601 303.991 14.8746C303.908 13.8891 303.801 12.9123 303.678 11.9468C303.551 10.9814 303.347 9.8298 303.06 8.49196C302.959 8.02501 302.91 7.7013 302.91 7.52655C302.91 7.26872 303.04 6.82755 303.301 6.20303C303.563 5.57852 303.925 4.82509 304.396 3.93989L305.152 8.38024C305.428 10.0676 305.621 11.5315 305.73 12.769C305.814 13.723 305.857 14.6368 305.857 15.5163L305.854 15.5134Z" fill="#374151"/>
    <path d="M320.526 19.1631L318.89 19.1517C317.355 19.1517 315.995 19.2806 314.814 19.5413C313.633 19.802 313.04 20.097 313.04 20.4322C313.368 21.4349 313.658 22.3745 313.914 23.254C314.17 24.1306 314.297 24.9642 314.297 25.7492C314.297 26.3164 314.239 26.7776 314.127 27.1271C314.015 27.4795 313.802 27.8633 313.492 28.2816C313.4 27.1787 313.193 26.0213 312.877 24.8095C312.767 24.3827 312.494 23.486 312.057 22.1138C311.79 21.2687 311.655 20.7101 311.655 20.4322C311.655 20.0397 311.764 19.5499 311.982 18.9655C312.158 18.4899 312.359 18.0659 312.586 17.6992C312.854 17.281 313.322 16.9515 313.989 16.708C314.656 16.4645 315.674 16.2697 317.039 16.1179C316.369 15.1811 315.78 14.7142 315.277 14.7142C315.058 14.7142 314.854 14.7973 314.662 14.9663C314.469 15.1353 314.153 15.502 313.719 16.0692L313.115 15.7684C313.483 14.4907 313.94 13.5053 314.481 12.8148C315.021 12.1244 315.616 11.7807 316.26 11.7807C316.823 11.7807 317.447 12.1015 318.134 12.7461C318.821 13.3907 319.62 14.3933 320.526 15.7541V19.166V19.1631Z" fill="#374151"/>
    <path d="M326.048 19.1631H324.286C323.306 19.1631 322.596 18.7621 322.159 17.9599C321.673 17.0747 321.429 15.5822 321.429 13.4823V9.91C321.429 9.09928 321.316 8.46904 321.089 8.01641C320.98 7.79869 320.727 7.48643 320.333 7.07677L321.693 3.94274C322.179 4.61023 322.518 5.27198 322.711 5.92514C322.938 6.68717 323.05 7.65545 323.05 8.83286V11.3023C323.05 13.0498 323.168 14.2615 323.403 14.9376C323.587 15.4819 323.881 15.7541 324.283 15.7541H326.045V19.166L326.048 19.1631Z" fill="#374151"/>
    <path d="M335.336 19.1631H325.168V15.7512H333.335C333.008 15.3587 332.689 15.015 332.378 14.7228C332.125 14.4878 331.786 14.2042 331.358 13.8691C330.88 13.5024 330.406 13.1328 329.935 12.7661L329.532 13.2188C328.785 12.4825 328.342 12.0356 328.198 11.8781C327.779 11.4025 327.569 10.8553 327.569 10.2366C327.569 9.39146 327.626 8.79846 327.744 8.45756C327.911 7.97342 328.267 7.54084 328.813 7.16556C329.299 6.83038 329.82 6.52672 330.374 6.24884C330.811 6.03112 331.389 5.77616 332.111 5.48396C332.447 5.34931 333.154 5.0743 334.238 4.65604V7.64111C334.195 7.64111 333.844 7.74997 333.18 7.96769C332.358 8.23411 331.703 8.46902 331.217 8.66955C330.512 8.95316 330.159 9.16802 330.159 9.30839C330.159 9.38287 330.458 9.70945 331.053 10.2853C331.866 11.0702 332.551 11.7893 333.102 12.4424C334.017 13.5196 334.758 14.5938 335.33 15.6653V19.1631H335.336ZM332.277 1.83427L330.768 4.64172L327.825 3.11195L329.348 0.278717L332.28 1.83427H332.277Z" fill="#374151"/>
    <path d="M339.499 15.5134C339.499 16.2583 339.409 16.9372 339.234 17.5503C339.059 18.1662 338.72 18.9912 338.216 20.0254L337.46 19.7246C337.662 18.6532 337.762 17.7852 337.762 17.1177C337.762 16.6078 337.719 15.8601 337.636 14.8746C337.552 13.8891 337.446 12.9123 337.322 11.9468C337.196 10.9814 336.992 9.8298 336.707 8.49197C336.607 8.02501 336.555 7.7013 336.555 7.52655C336.555 7.26872 336.684 6.82755 336.946 6.20304C337.205 5.58139 337.57 4.82509 338.041 3.93989L338.797 8.38024C339.073 10.0676 339.266 11.5315 339.375 12.769C339.458 13.723 339.501 14.6368 339.501 15.5163L339.499 15.5134Z" fill="#374151"/>
    <path d="M368.038 19.1488C367.115 19.1488 366.457 19.1058 366.063 19.0228C365.669 18.9397 364.936 18.7048 363.861 18.3209C363.375 18.6647 362.941 18.8881 362.559 18.997C362.177 19.1058 361.605 19.1603 360.843 19.1603H358.793C358.793 21.0997 358.172 22.4948 356.93 23.3485C355.85 24.0933 354.217 24.4658 352.035 24.4658C349.997 24.4658 348.424 24.0962 347.323 23.3571C346.219 22.618 345.67 21.5666 345.67 20.203C345.67 19.0399 345.846 17.98 346.199 17.0174C346.585 15.9546 347.341 14.5767 348.465 12.8807L349.221 13.4079C348.39 14.8202 347.847 15.8458 347.591 16.4789C347.335 17.1148 347.208 17.7709 347.208 18.4469C347.208 19.3235 347.68 20.0426 348.623 20.5984C349.566 21.1541 350.805 21.432 352.34 21.432C353.875 21.432 355.119 21.1427 356.151 20.5668C357.183 19.991 357.698 19.2834 357.698 18.4469C357.698 17.9284 357.609 17.4156 357.428 16.9057C357.247 16.3958 356.859 15.5822 356.263 14.4592L357.37 11.0731C357.965 12.0757 358.359 12.9037 358.552 13.5568C358.718 14.124 358.805 14.8574 358.805 15.7512H359.963C361.231 15.7512 362.113 15.6022 362.611 15.3072C363.111 15.0092 363.358 14.4764 363.358 13.7087C363.358 13.3735 363.39 13.13 363.453 12.9753C363.516 12.8206 363.666 12.6602 363.899 12.4911L364.491 12.0786C364.508 12.2362 364.519 12.4539 364.528 12.7232C364.537 12.9953 364.54 13.1729 364.54 13.256C364.54 13.7172 364.473 14.3274 364.338 15.0866C364.724 15.2126 365.112 15.3272 365.503 15.4304C365.894 15.5364 366.259 15.6108 366.604 15.6624C366.604 15.3616 366.497 14.9949 366.29 14.5595C366.08 14.124 365.977 13.8404 365.977 13.7058C365.977 13.6055 365.991 13.5081 366.02 13.4164C366.049 13.3248 366.118 13.2045 366.227 13.0526L367.408 11.371C367.636 11.8981 367.797 12.3765 367.891 12.8063C367.989 13.236 368.035 13.7745 368.035 14.4162V19.1431L368.038 19.1488Z" fill="#374151"/>
    <path d="M374.077 19.1631H367.158V15.7512H372.568L371.045 7.2372L370.24 6.71009C370.24 6.21735 370.315 5.71888 370.467 5.21755C370.66 4.58158 370.987 3.82529 371.447 2.94868L372.025 3.24948C372.025 3.30104 372.008 3.43282 371.976 3.65054C371.976 3.92555 372.151 4.19484 372.505 4.45267C372.816 4.68758 373.31 4.9454 373.991 5.22901C373.916 5.76472 373.804 6.2861 373.658 6.79603C373.511 7.30595 373.344 7.76145 373.16 8.16251L372.706 7.98776L374.077 15.7483V19.1603V19.1631Z" fill="#374151"/>
    <path d="M387.565 19.1631H373.195V15.7512H382.141C381.126 14.7056 380.186 13.955 379.324 13.4938C378.559 13.0841 377.815 12.8807 377.084 12.8807C376.866 12.8807 376.668 12.8922 376.487 12.9123C376.305 12.9323 376.044 12.981 375.699 13.0555C376.159 12.0013 376.673 11.2249 377.24 10.7236C377.806 10.2223 378.45 9.97017 379.171 9.97017C379.726 9.97017 380.258 10.1048 380.77 10.3712C381.281 10.6377 381.856 11.0702 382.495 11.6632C382.998 12.1302 383.711 12.8636 384.633 13.8576C385.263 14.5595 385.743 15.015 386.073 15.2241C386.404 15.4332 386.901 15.608 387.565 15.7512V19.1631ZM382.908 21.9076L381.325 24.7408L378.43 23.1852L379.976 20.352L382.908 21.9076Z" fill="#374151"/>
    <path d="M398.259 19.1488C397.38 19.1488 396.342 18.9769 395.152 18.636C394.103 18.3352 393.18 17.98 392.384 17.5703C391.898 18.298 391.297 18.7735 390.584 18.9998C390.239 19.1087 389.77 19.1631 389.175 19.1631H386.683V15.7512H389.175C389.931 15.7512 390.529 15.6596 390.975 15.4762C391.544 15.2413 391.941 14.8374 392.159 14.2587C392.637 13.1959 393.249 12.325 393.996 11.6375C394.657 11.0273 395.221 10.7207 395.684 10.7207C396.112 10.7207 396.641 11.3653 397.27 12.6516C397.932 14.0152 398.265 15.2671 398.265 16.413V19.1459L398.259 19.1488ZM395.908 15.3645C395.908 15.1811 395.727 14.8632 395.367 14.4105C394.965 13.9092 394.617 13.6571 394.324 13.6571C393.996 13.6571 393.72 14.0324 393.493 14.7858C393.93 14.952 394.261 15.078 394.488 15.1611C395.166 15.4132 395.549 15.5364 395.632 15.5364C395.816 15.5364 395.908 15.4791 395.908 15.3616V15.3645Z" fill="#374151"/>
    </g>
    <defs>
    <clipPath id="clip0_198_7676">
    <rect width="398" height="28" fill="white" transform="translate(0.259033 0.278717)"/>
    </clipPath>
    </defs>
    </svg>
    