<svg width="245" height="16" viewBox="0 0 245 16" fill="none" xmlns="http://www.w3.org/2000/svg">
    <g clip-path="url(#clip0_198_6375)">
    <path d="M218.618 6.1685C219.144 6.94911 219.308 7.73321 219.282 8.56272C219.271 8.89277 219.358 9.05169 219.719 9.01153C220.006 8.98009 220.301 9.01327 220.588 8.98358C221.3 8.90849 221.548 8.5697 221.436 7.85895C221.389 7.55509 221.278 7.23551 221.631 6.99626C221.75 7.42236 221.839 7.82926 221.978 8.21869C222.13 8.6448 222.433 8.92595 222.903 8.97136C223.262 9.00628 223.45 8.84038 223.382 8.48763C223.33 8.20996 223.216 7.93055 223.072 7.68606C222.71 7.0731 222.697 7.08183 223.236 6.47411C223.871 7.19185 223.781 8.08772 223.826 8.97311H226.937C226.933 8.29553 226.86 7.65987 226.373 7.17963C226.068 6.87751 226.056 6.60683 226.273 6.26629C226.402 6.06372 226.494 5.8367 226.609 5.60793C227.614 6.55269 227.438 7.77862 227.484 8.97136H229.833C229.738 8.24139 229.651 7.53937 229.553 6.83909C229.388 5.6446 229.226 4.45011 229.036 3.26086C229.001 3.04606 228.832 2.85397 228.727 2.64964C228.684 2.56582 228.609 2.47152 228.619 2.38944C228.686 1.86554 228.773 1.34514 228.942 0.79155C229.123 1.39753 229.628 1.49707 230.065 1.69964C230.161 1.74505 230.255 1.91444 230.253 2.02795C230.253 2.3161 230.22 2.60948 230.154 2.88889C230.124 3.01288 229.983 3.11068 229.894 3.21895C229.849 3.19974 229.802 3.18053 229.757 3.16132C229.893 4.10434 230.025 5.04736 230.166 5.98863C230.302 6.89323 230.438 7.79783 230.595 8.69893C230.614 8.81244 230.762 8.99057 230.852 8.99232C232.519 9.00978 234.186 9.00454 235.867 8.9504C234.683 7.94452 233.439 7.10279 231.763 7.34378C231.967 6.2855 233.066 5.80177 233.908 6.07769C234.46 6.25931 234.994 6.55968 235.468 6.9037C236.113 7.37172 236.74 7.8834 237.285 8.46143C238.178 9.40969 240.366 9.06217 241.018 8.072C241.375 7.52889 241.895 7.06437 242.42 6.66795C243.186 6.08642 243.238 6.15104 243.747 6.97181C244.379 7.98818 244.653 9.06217 244.451 10.2479C243.444 10.4086 242.902 10.2636 241.343 9.40794C240.77 10.199 239.925 10.3003 239.025 10.2968C236.618 10.2863 234.211 10.2933 231.803 10.2933C229.311 10.2933 226.818 10.2933 224.326 10.2933C223.993 10.2933 223.652 10.3614 223.33 10.3073C222.797 10.22 222.278 10.0593 221.657 9.90739C221.184 10.3754 220.452 10.2951 219.745 10.2881C219.424 10.2846 219.313 10.3702 219.261 10.7142C219.062 12.0292 218.226 12.8238 217.012 13.2359C215.918 13.6061 214.79 13.6271 213.664 13.4018C212.4 13.1486 211.797 12.2475 211.914 10.9534C212.018 9.80087 212.41 8.74958 212.914 7.72797C212.955 7.6424 213.091 7.60224 213.184 7.53937C213.192 7.64939 213.236 7.77163 213.206 7.86942C212.994 8.54525 212.687 9.20187 212.558 9.89167C212.313 11.2189 212.924 12.0222 214.262 12.2038C215.389 12.3557 216.493 12.223 217.536 11.748C218.79 11.177 219.163 10.3283 218.723 9.01327C218.601 8.64654 218.362 8.31823 218.223 7.95499C218.148 7.7629 218.108 7.51667 218.16 7.32457C218.263 6.95086 218.442 6.59984 218.618 6.1685ZM243.508 8.98882C243.557 8.93818 243.604 8.88579 243.653 8.83514C243.548 8.55748 243.473 8.2641 243.334 8.00564C243.202 7.7629 243.001 7.55509 242.832 7.3333C242.571 7.54985 242.308 7.76464 242.052 7.98643C242.014 8.01961 242.009 8.08772 241.944 8.25012C242.468 8.4981 242.989 8.74434 243.508 8.98882Z" fill="#374151"/>
    <path d="M103.383 10.2688C102.761 10.3195 102.183 10.3003 101.643 9.97019C101.54 9.90733 101.343 9.90733 101.23 9.96321C100.241 10.4417 99.246 10.4277 98.255 10.0016C98.0372 9.90733 97.8892 9.88637 97.6645 10.0034C97.391 10.1448 97.0688 10.2566 96.764 10.2636C95.388 10.295 94.012 10.288 92.6342 10.2915C92.0263 10.2933 91.4184 10.2985 90.8105 10.2915C89.9327 10.281 89.4398 10.047 88.9381 9.46376C88.2379 9.72222 87.5865 10.0593 86.8967 10.1867C86.1669 10.3212 85.4005 10.281 84.6516 10.2671C84.19 10.2583 83.913 9.91431 83.7981 9.50567C83.6431 8.95034 83.5142 8.37754 83.4567 7.80475C83.3382 6.61899 83.3139 5.4245 83.1693 4.24398C83.1118 3.77596 82.8296 3.33763 82.6624 2.88184C82.6241 2.77706 82.5858 2.62338 82.6328 2.54131C82.861 2.13965 83.117 1.75546 83.4184 1.27696C83.7162 2.26189 83.8277 3.16998 83.873 4.09554C83.9357 5.37211 84.021 6.64693 84.1134 7.92175C84.1308 8.14703 84.197 8.39151 84.3137 8.58186C84.4182 8.75126 84.6167 8.97129 84.7822 8.97828C85.836 9.01844 86.9054 9.09878 87.893 8.58535C88.0063 8.52598 88.1125 8.45787 88.2205 8.395C87.8878 7.69298 87.6405 7.60916 86.9281 7.93572C86.6268 7.0154 87.0587 6.26623 87.9975 6.2086C88.595 6.17018 89.222 6.18415 89.8003 6.31862C90.7513 6.54215 90.9377 7.34546 90.2654 8.0632C90.0982 8.24307 89.924 8.41596 89.6557 8.69363C90.0198 8.80714 90.3316 8.98352 90.6451 8.9905C92.0072 9.02194 93.3727 9.00273 94.7348 9.00098C94.7749 9.00098 94.8149 8.97479 94.8863 8.95034C94.9055 8.28324 94.7975 7.65107 94.3098 7.15511C94.0433 6.88268 93.9963 6.64169 94.2053 6.32036C94.3446 6.10557 94.437 5.86108 94.5624 5.60437C95.5552 6.55612 95.4054 7.76807 95.4455 9.03416C96.0185 8.994 96.5811 9.00098 97.1228 8.90144C97.5391 8.8246 97.654 8.48931 97.5966 7.91302C97.5635 7.58121 97.4154 7.21798 97.8073 6.96825C97.9832 7.38388 98.1296 7.80649 98.3368 8.19592C98.7566 8.98876 99.9428 9.3031 100.721 8.86127C101.061 8.66918 101.045 8.35658 101.054 8.02653C101.063 7.67552 100.817 7.26687 101.273 6.96651C101.394 7.37864 101.496 7.77855 101.629 8.16973C101.754 8.5382 101.956 8.85778 102.371 8.95732C102.812 9.06385 103.099 8.79841 103.001 8.35833C102.956 8.15052 102.897 7.90254 102.754 7.76458C102.273 7.29831 102.446 6.90015 102.818 6.49849C103.51 6.97698 103.461 8.38103 103.383 10.2706V10.2688Z" fill="#374151"/>
    <path d="M19.4162 10.2934C19.1584 10.2934 18.986 10.2934 18.8135 10.2934C16.8854 10.2934 14.9572 10.3021 13.0273 10.2881C12.4525 10.2846 11.8708 10.2672 11.3064 10.1711C10.8187 10.089 10.4111 10.0821 9.91298 10.1781C9.43399 10.2707 8.93583 10.2672 8.44465 10.2916C8.23563 10.3021 8.10674 10.3196 8.07539 10.5902C7.91689 11.9576 7.08779 12.7889 5.84589 13.2254C4.7416 13.6131 3.5955 13.6323 2.45636 13.4018C1.22317 13.1538 0.62574 12.3069 0.707604 11.0338C0.784243 9.84804 1.19705 8.76881 1.7161 7.72276C1.75791 7.63893 1.89551 7.60401 1.98956 7.54463C1.99479 7.6564 2.03137 7.77864 2.00001 7.87818C1.78926 8.54004 1.48967 9.18269 1.35729 9.85852C1.09602 11.198 1.72133 12.0275 3.07122 12.2056C4.18422 12.3523 5.27284 12.2178 6.30747 11.762C7.5633 11.2067 7.95172 10.3545 7.53195 9.04124C7.41873 8.68673 7.25326 8.33397 7.04251 8.02837C6.85091 7.7507 6.83349 7.52193 6.97632 7.23204C7.13482 6.90897 7.255 6.56843 7.41351 6.179C7.91166 6.88103 8.07191 7.61623 8.0841 8.39335C8.09455 9.00806 8.09106 9.0098 8.69198 9.00631C8.92364 9.00631 9.15704 9.01155 9.38696 8.98535C10.0994 8.90502 10.3397 8.57322 10.2317 7.85897C10.1882 7.56559 10.068 7.25125 10.4512 6.98057C10.5052 7.23728 10.5435 7.46605 10.6027 7.69132C10.7299 8.19077 10.871 8.70245 11.4179 8.89454C11.6112 8.96265 11.9091 8.9644 12.0589 8.85613C12.1703 8.77579 12.1721 8.45971 12.1303 8.26936C12.0798 8.03535 11.9735 7.78563 11.8168 7.61099C11.5363 7.30015 11.5503 7.0347 11.8063 6.73783C11.8725 6.66274 11.9195 6.57018 11.9979 6.45143C12.3376 6.7972 12.4943 7.2041 12.5448 7.65116C12.5936 8.08076 12.6093 8.51384 12.6424 8.97488H15.7306C15.741 8.33223 15.6801 7.71228 15.2185 7.23902C14.8701 6.88277 14.8475 6.56669 15.1157 6.17551C15.2289 6.01135 15.2969 5.81751 15.4014 5.60795C16.4186 6.55097 16.2305 7.78562 16.2897 8.97488H18.6341C18.5679 8.47892 18.5035 7.99693 18.4373 7.51669C18.2388 6.07771 18.0489 4.63874 17.8329 3.20151C17.805 3.01291 17.6483 2.84351 17.5507 2.66539C17.5055 2.58156 17.4114 2.49425 17.4201 2.41741C17.4846 1.88128 17.5716 1.34865 17.7354 0.79332C17.927 1.36612 18.3903 1.50233 18.8327 1.6822C18.9285 1.72062 19.0487 1.85858 19.0469 1.94764C19.0382 2.29516 19.0069 2.64443 18.9337 2.98322C18.9146 3.07577 18.7212 3.12991 18.5749 3.22072C18.7839 5.51889 19.4388 7.82928 19.4127 10.2916L19.4162 10.2934Z" fill="#374151"/>
    <path d="M196.354 1.37477C196.469 2.35097 196.612 3.32367 196.692 4.30162C196.785 5.44546 196.811 6.5928 196.889 7.73839C196.908 8.00908 196.999 8.27976 197.093 8.53647C197.21 8.84906 197.436 9.01147 197.795 9.00972C199.638 9.00099 201.481 9.00623 203.323 9.00448C203.407 9.00448 203.491 8.98702 203.679 8.96781C203.468 8.69364 203.329 8.43343 203.12 8.2588C202.421 7.67378 201.698 7.11845 200.981 6.55438C200.925 6.51072 200.841 6.44786 200.789 6.46183C199.986 6.6906 199.751 5.93269 199.286 5.58517C199.208 5.52579 199.187 5.34592 199.19 5.22193C199.223 4.2405 199.514 3.34288 200.423 2.86788C201.508 2.30032 202.651 1.84628 203.829 1.31714V2.65308C202.965 2.95694 202.101 3.25033 201.245 3.56292C200.962 3.66595 200.692 3.81264 200.416 3.94362C200.077 4.10603 200.082 4.30686 200.359 4.52864C200.937 4.99142 201.531 5.43498 202.092 5.91872C202.966 6.67313 203.696 7.54979 204.318 8.52948C204.665 9.07783 204.518 9.64539 204.558 10.2671C204.363 10.2758 204.196 10.2915 204.029 10.2915C202.418 10.2933 200.807 10.2915 199.197 10.2915C198.706 10.2915 198.213 10.2828 197.722 10.295C197.149 10.309 196.741 10.0348 196.609 9.50568C196.428 8.77746 196.306 8.03003 196.224 7.2826C196.105 6.19988 196.079 5.10842 195.945 4.02919C195.898 3.645 195.646 3.28875 195.499 2.91328C195.454 2.79628 195.391 2.62863 195.438 2.54132C195.661 2.13791 195.923 1.75547 196.168 1.36604C196.229 1.36953 196.292 1.37127 196.353 1.37477H196.354Z" fill="#374151"/>
    <path d="M183.228 10.2602C182.568 10.3265 181.993 10.2986 181.452 9.97902C181.344 9.91615 181.149 9.90218 181.039 9.95632C180.051 10.4505 179.055 10.4278 178.064 10.0052C177.824 9.90218 177.663 9.89869 177.432 10.0227C177.184 10.1554 176.893 10.2375 176.613 10.2637C176.08 10.3161 175.542 10.3213 175.005 10.3318C174.359 10.344 173.84 10.0768 173.655 9.44814C173.469 8.81422 173.399 8.14712 173.291 7.49225C173.26 7.29841 173.271 7.09758 173.262 6.8985C173.224 6.88802 173.183 6.87929 173.145 6.86881C173.072 7.05741 173.006 7.24776 172.924 7.43113C172.75 7.83104 172.576 8.2292 172.389 8.62387C171.891 9.67691 171.05 10.3143 169.914 10.4662C168.925 10.599 167.922 10.6147 166.923 10.6776C166.849 10.6828 166.772 10.6356 166.671 10.5117C166.842 10.4401 167.012 10.3632 167.185 10.2969C168.198 9.90742 169.25 9.59658 170.219 9.11459C172.576 7.9428 173.363 6.24537 172.826 3.65731C172.689 2.99195 172.577 2.35105 172.969 1.7346C173.013 1.66824 173.055 1.60013 173.17 1.42026C173.335 2.58331 173.488 3.62587 173.633 4.66843C173.783 5.74766 173.919 6.8269 174.074 7.90438C174.101 8.10346 174.182 8.29556 174.249 8.48591C174.375 8.83518 174.593 9.02553 175 9.00108C175.521 8.96964 176.045 9.01505 176.566 8.98187C177.209 8.9417 177.413 8.66229 177.407 8.01615C177.406 7.6564 177.137 7.2303 177.601 6.96486C177.792 7.40144 177.949 7.85898 178.182 8.27286C178.592 8.99584 179.809 9.28398 180.525 8.85439C180.964 8.59069 180.882 8.16284 180.833 7.75944C180.797 7.46605 180.734 7.17966 181.067 6.9701C181.204 7.41366 181.288 7.87469 181.49 8.2746C181.628 8.54529 181.896 8.81771 182.171 8.93646C182.584 9.11459 182.89 8.81073 182.8 8.36192C182.755 8.14014 182.657 7.91835 182.539 7.72276C182.148 7.08011 182.142 7.08535 182.674 6.4427C183.516 7.63545 183.112 8.96615 183.228 10.2567V10.2602Z" fill="#374151"/>
    <path d="M45.1844 10.5151C45.3568 10.4435 45.5258 10.3666 45.7 10.3003C46.6736 9.93005 47.6821 9.63143 48.6157 9.17738C51.0838 7.97766 51.8694 6.31864 51.3434 3.6258C51.1361 2.56578 51.2005 2.13269 51.7109 1.43241C51.9199 3.04078 52.1132 4.57581 52.324 6.10734C52.4233 6.82508 52.5208 7.54631 52.6846 8.25183C52.8309 8.88226 53.0242 8.94163 53.6565 9.00624C54.874 9.13198 55.7519 8.69016 56.4939 7.70348C56.9101 7.14815 57.5929 6.7919 58.166 6.35881C58.3489 6.22085 58.4987 6.28546 58.6293 6.48629C59.3138 7.52536 59.8155 8.61157 59.6796 9.91084C59.6482 10.2165 59.5577 10.2915 59.2668 10.302C58.2653 10.3352 57.3909 10.0034 56.675 9.48125C56.1594 9.74669 55.7188 10.0872 55.2258 10.199C54.6145 10.3404 53.9613 10.323 53.3255 10.3195C52.7647 10.316 52.3275 9.99816 52.1812 9.46902C51.9983 8.80542 51.9216 8.11038 51.8102 7.42756C51.7823 7.26341 51.7928 7.09227 51.6935 6.89842C51.6447 6.98574 51.5872 7.06956 51.5472 7.16037C51.3225 7.66332 51.1152 8.17499 50.8783 8.6727C50.4011 9.67858 49.5929 10.2985 48.5077 10.4505C47.4923 10.5919 46.4594 10.6129 45.4335 10.681C45.3586 10.6862 45.2819 10.6391 45.2053 10.6164C45.1966 10.5832 45.1896 10.5517 45.1809 10.5186L45.1844 10.5151ZM58.6903 8.9818C58.7373 8.93115 58.7826 8.88226 58.8296 8.83161C58.7408 8.57839 58.685 8.30771 58.5561 8.0772C58.4081 7.81176 58.1904 7.37168 58.0144 7.37866C57.6121 7.39089 57.3142 7.72968 57.147 8.26056C57.6521 8.49806 58.1712 8.7408 58.6903 8.98354V8.9818Z" fill="#374151"/>
    <path d="M19.9492 12.7993C20.0886 12.7608 20.2331 12.6753 20.3672 12.691C20.8985 12.7504 21.4245 12.8953 21.954 12.9058C23.5791 12.9372 25.6222 11.4843 26.1012 9.93702C26.2144 9.57378 26.1744 9.12847 26.0908 8.74602C26.0159 8.40374 25.8522 8.02653 25.6066 7.78729C25.0004 7.19877 25.1972 6.64169 25.5648 6.01651C26.4949 6.78315 26.8206 7.78729 26.7527 8.97479H30.1596C30.1126 8.58885 30.0673 8.22562 30.022 7.84492C29.6022 7.91302 29.2365 8.00558 28.8689 8.02304C27.9493 8.06495 27.4285 7.52883 27.5626 6.6155C27.6497 6.02175 27.7925 5.40704 28.059 4.8779C28.484 4.03268 29.4716 3.98378 29.9349 4.80455C30.2885 5.43149 30.5376 6.16495 30.6403 6.87919C30.7971 7.97764 30.7867 9.10227 30.8511 10.2618C30.6107 10.2776 30.4575 10.295 30.3042 10.295C29.2591 10.2968 28.2158 10.3037 27.1707 10.2915C26.8728 10.288 26.7823 10.3858 26.69 10.6879C26.5436 11.1612 26.3207 11.6467 26.0037 12.0221C25.6083 12.4919 25.1067 12.8831 24.6137 13.2603C23.8735 13.8278 23.027 13.9501 22.1404 13.6864C21.4088 13.4698 20.6895 13.2166 19.9632 12.9791C19.9597 12.9198 19.9562 12.8604 19.951 12.801L19.9492 12.7993ZM29.5082 6.55962C29.5239 6.49675 29.5413 6.43563 29.5569 6.37276C29.3897 6.1632 29.2521 5.91522 29.0449 5.7598C28.902 5.65327 28.6268 5.5939 28.477 5.662C28.3429 5.72138 28.2088 6.00254 28.2402 6.15272C28.2785 6.33783 28.4631 6.59978 28.6251 6.63122C28.9038 6.6871 29.2138 6.59105 29.5099 6.55962H29.5082Z" fill="#374151"/>
    <path d="M127.287 1.39756C127.4 2.39995 127.54 3.40235 127.622 4.40649C127.714 5.53636 127.749 6.66973 127.824 7.79961C127.838 8.01266 127.916 8.22397 127.98 8.43178C128.101 8.82645 128.35 9.02553 128.785 9.01156C129.421 8.99061 130.057 9.00632 130.766 9.00632C130.398 8.1384 130.125 7.3019 130.59 6.45493C130.86 5.96421 131.316 5.67607 131.842 5.49794C133.23 5.02644 134.571 5.49794 135.247 6.76229C135.059 6.74308 134.913 6.74482 134.775 6.71164C133.843 6.49335 132.911 6.43223 131.98 6.69593C131.147 6.93168 130.994 7.38922 131.532 8.06854C131.718 8.3043 131.936 8.54005 132.189 8.69548C132.389 8.81772 132.682 8.90154 132.905 8.85788C134.024 8.63261 135.136 8.36018 136.25 8.10522C136.348 8.08251 136.444 8.05981 136.639 8.01266C136.463 8.4702 136.334 8.87535 136.149 9.25255C136.094 9.36607 135.895 9.42893 135.751 9.47434C134.15 9.97379 132.52 10.2881 130.837 10.2951C130.098 10.2986 129.36 10.2899 128.621 10.2986C128.068 10.3056 127.688 10.0332 127.54 9.52673C127.378 8.97314 127.252 8.3986 127.195 7.8258C127.09 6.78499 127.052 5.73719 126.974 4.69289C126.925 4.03627 126.826 3.39362 126.38 2.85924C126.326 2.79462 126.312 2.63047 126.355 2.55712C126.585 2.15721 126.84 1.77128 127.087 1.38184L127.285 1.40105L127.287 1.39756Z" fill="#374151"/>
    <path d="M41.0912 8.98179H44.1428C44.2177 8.25881 44.0627 7.6249 43.5645 7.12195C43.298 6.85302 43.2998 6.62599 43.4774 6.33086C43.6115 6.10733 43.7126 5.86634 43.8449 5.6009C44.2699 6.03224 44.5817 6.50375 44.6218 7.08703C44.6949 8.12784 44.7228 9.1704 44.7716 10.2584C44.5469 10.2723 44.3936 10.2915 44.2403 10.2915C43.2963 10.295 42.354 10.302 41.4099 10.288C41.1277 10.2828 41.0424 10.3963 40.9274 10.6478C40.6313 11.3009 40.3283 11.9715 39.905 12.5443C39.3058 13.3529 38.4454 13.7598 37.4229 13.5729C36.5782 13.4192 35.7526 13.1695 34.9165 12.9634C34.9252 12.8848 34.9322 12.8045 34.9409 12.7259C35.0785 12.7172 35.2178 12.6927 35.3554 12.7032C35.9999 12.7556 36.6496 12.9075 37.2836 12.8552C38.205 12.7783 38.9157 12.2125 39.527 11.5472C39.8562 11.1892 40.1541 10.7997 40.5111 10.3684C40.1297 10.2985 39.8318 10.2636 39.5462 10.1885C38.8582 10.0069 38.4767 9.57904 38.5203 8.87177C38.5516 8.36534 38.6979 7.84668 38.8895 7.37168C39.0794 6.90366 39.4713 6.59107 40.0217 6.66092C40.5686 6.73077 40.7846 7.15863 40.8891 7.63013C40.9867 8.06497 41.0232 8.51552 41.0894 8.98179H41.0912ZM40.4833 9.05863C40.5129 9.02021 40.5425 8.98005 40.5721 8.94163C40.4467 8.66047 40.3631 8.34613 40.1785 8.11387C40.06 7.96543 39.7831 7.86589 39.5915 7.88335C39.4574 7.89558 39.2362 8.16102 39.2518 8.2885C39.278 8.49631 39.4225 8.767 39.5967 8.85955C39.8562 8.99576 40.1854 8.99926 40.4868 9.05863H40.4833Z" fill="#374151"/>
    <path d="M72.7273 6.57191C72.9102 6.18423 73.0844 5.8175 73.3213 5.3163C73.5564 5.7459 73.8438 6.06897 73.9065 6.4322C74.0546 7.28267 74.1068 8.15234 74.173 9.01677C74.2044 9.41843 74.1782 9.82532 74.1782 10.2532C74.0319 10.2706 73.9222 10.2951 73.8107 10.2951C71.4471 10.2898 69.0835 10.2864 66.7199 10.2689C66.4046 10.2671 66.0841 10.2148 65.7776 10.1379C64.2988 9.7642 63.6369 8.77927 63.9452 7.28267C64.0723 6.66272 64.3911 6.08294 64.6228 5.48569C64.6959 5.50316 64.7691 5.52237 64.844 5.53983C64.8335 5.66207 64.844 5.79305 64.8056 5.90656C64.7046 6.20867 64.5531 6.49507 64.473 6.80068C64.2814 7.51668 64.4939 8.15409 65.161 8.45969C65.7532 8.73038 66.4185 8.95914 67.0595 8.9801C69.1601 9.04472 71.2642 9.00804 73.3666 9.00804C73.4223 9.00804 73.478 8.98883 73.5791 8.97137C73.6365 8.04581 73.478 7.21281 72.7256 6.5754L72.7273 6.57191Z" fill="#374151"/>
    <path d="M120.151 5.36864C121.382 6.87572 120.923 8.59062 121.05 10.2514C120.895 10.2688 120.771 10.295 120.649 10.295C118.286 10.2898 115.922 10.2863 113.558 10.2671C113.229 10.2636 112.893 10.206 112.576 10.1187C111.055 9.70477 110.406 8.57664 110.846 7.05385C111.003 6.51248 111.282 6.00605 111.505 5.48389L111.707 5.54327C111.689 5.66901 111.693 5.79998 111.653 5.91873C111.555 6.20688 111.414 6.48105 111.336 6.77269C111.134 7.5271 111.358 8.18197 112.067 8.48933C112.677 8.75477 113.362 8.96258 114.02 8.98354C116.063 9.04641 118.11 9.00799 120.155 9.00624C120.238 9.00624 120.32 8.98703 120.433 8.97306C120.48 8.14705 120.39 7.3839 119.785 6.78316C119.622 6.61901 119.595 6.49677 119.703 6.29943C119.857 6.02176 119.982 5.72838 120.155 5.37038L120.151 5.36864Z" fill="#374151"/>
    <path d="M143.04 7.50965C143.047 7.63364 143.09 7.76986 143.054 7.87987C142.852 8.4841 142.573 9.06738 142.425 9.68209C142.078 11.1193 142.744 12.0501 144.202 12.2178C145.118 12.3243 146.024 12.2387 146.9 11.9209C148.619 11.2974 148.912 10.3597 148.382 8.62032C148.37 8.57841 148.352 8.53649 148.325 8.50331C147.67 7.71223 148.051 6.98226 148.502 6.18069C148.64 6.45312 148.8 6.6784 148.87 6.92812C149.293 8.4387 149.296 9.97547 148.976 11.4948C148.779 12.4221 148.075 12.9565 147.191 13.2341C146.121 13.5694 145.017 13.6253 143.921 13.4734C142.174 13.2289 141.505 12.2562 141.803 10.5011C141.983 9.44633 142.364 8.4649 142.864 7.52537C142.922 7.52013 142.981 7.51489 143.038 7.50791L143.04 7.50965Z" fill="#374151"/>
    <path d="M164.811 8.9871C164.255 8.24491 163.569 7.74895 162.712 8.67975C162.372 8.61164 162.36 8.43875 162.503 8.15235C163.123 6.90547 164.222 6.7029 165.196 7.69656C165.539 8.04583 165.892 8.43177 166.081 8.8701C166.251 9.27 166.204 9.76247 166.256 10.2637C165.974 10.2776 165.776 10.2759 165.581 10.2968C164.692 10.3981 163.79 10.4383 162.921 10.6304C162.064 10.8207 161.926 11.1456 162.121 11.9995C162.303 12.7889 162.539 13.5677 162.682 14.3641C162.747 14.7273 162.642 15.1202 162.614 15.4992C162.571 15.5027 162.529 15.5044 162.486 15.5079C162.35 15.0713 162.209 14.6347 162.081 14.1964C161.864 13.4455 161.629 12.6963 161.446 11.9367C161.141 10.6723 161.695 9.71183 162.937 9.35034C163.391 9.21762 163.872 9.16697 164.339 9.07791C164.489 9.04997 164.637 9.02028 164.809 8.9871H164.811Z" fill="#374151"/>
    <path d="M191.448 15.5062C191.098 14.282 190.702 13.0665 190.411 11.8284C190.136 10.6548 190.687 9.75199 191.829 9.38526C192.308 9.23159 192.819 9.17745 193.313 9.07966C193.463 9.04997 193.613 9.02203 193.784 8.99059C193.132 8.02837 192.538 7.94978 191.681 8.69721C191.58 8.63609 191.474 8.56973 191.302 8.4632C191.533 8.12267 191.716 7.77165 191.974 7.49224C192.425 7.00327 193.069 6.92818 193.641 7.26697C194.313 7.66338 194.79 8.26761 195.111 8.94868C195.268 9.28398 195.172 9.74675 195.147 10.1484C195.144 10.206 194.897 10.2776 194.757 10.2916C193.909 10.3789 193.059 10.4488 192.211 10.5309C192.111 10.5396 192.014 10.5798 191.918 10.6112C191.059 10.8923 190.908 11.156 191.117 12.031C191.298 12.7906 191.524 13.5433 191.659 14.3117C191.727 14.6941 191.632 15.1062 191.613 15.5044C191.558 15.5044 191.502 15.5062 191.444 15.5079L191.448 15.5062Z" fill="#374151"/>
    <path d="M153.21 8.42826C153.547 9.15473 154.179 9.00105 154.757 9.00629C155.449 9.01153 156.14 9.00629 156.823 9.00629C157.048 7.52366 156.464 6.33615 155.22 5.64112C155.13 5.59047 155.031 5.45077 155.032 5.35472C155.041 4.96703 155.09 4.58109 155.126 4.148C156.229 4.68238 156.805 5.56602 157.091 6.66272C157.396 7.82927 157.372 9.02027 157.338 10.234C157.244 10.2549 157.162 10.2898 157.082 10.2898C156.081 10.2933 155.079 10.3038 154.08 10.2881C153.12 10.2724 152.646 9.63497 153.21 8.42651V8.42826Z" fill="#374151"/>
    <path d="M123.898 4.16367C124.831 4.58629 125.38 5.29704 125.704 6.1737C126.167 7.42582 126.127 8.7443 126.098 10.0523C126.096 10.1344 125.925 10.2828 125.831 10.2828C124.788 10.295 123.743 10.3073 122.699 10.2741C122.029 10.2531 121.703 9.85322 121.748 9.19485C121.766 8.95735 121.821 8.72334 121.86 8.48759C121.922 8.44568 121.987 8.40376 122.05 8.36185C122.079 8.45965 122.079 8.58713 122.144 8.6465C122.286 8.77922 122.457 8.96783 122.623 8.97307C123.617 9.00276 124.614 8.98878 125.603 8.98878C125.76 7.57775 125.167 6.04971 123.985 5.64805C123.898 5.61837 123.779 5.49263 123.783 5.41579C123.8 5.01588 123.852 4.61597 123.896 4.16717L123.898 4.16367Z" fill="#374151"/>
    <path d="M78.2662 8.31818C78.4822 9.0918 79.0117 9.00449 79.5046 9.00623C80.2849 9.00623 81.067 9.00623 81.8421 9.00623C82.0546 7.66156 81.4659 6.1213 80.318 5.66725C80.2031 5.62185 80.0585 5.45769 80.0585 5.34942C80.0585 4.96523 80.1177 4.57929 80.1595 4.15318C81.1158 4.60723 81.6801 5.34593 82.0041 6.28371C82.4448 7.56027 82.3838 8.88574 82.3681 10.2531C82.234 10.2688 82.1121 10.2933 81.9884 10.2933C81.06 10.2968 80.1334 10.2915 79.205 10.295C78.2418 10.3003 77.6548 9.76763 78.268 8.31818H78.2662Z" fill="#374151"/>
    <path d="M50.5769 6.81108C50.1014 6.15796 49.6398 5.4926 49.1469 4.85345C48.9553 4.60372 48.7062 4.39242 48.4554 4.19683C48.1959 3.99425 47.9137 3.82835 47.6472 4.22826C47.5967 4.30335 47.4103 4.33828 47.3006 4.31732C46.421 4.14618 45.5187 3.00234 45.5361 2.1152C45.5431 1.76594 45.6946 1.55288 46.0447 1.68037C48.0774 2.42605 49.7478 3.59958 50.5386 5.72661C50.6622 6.06016 50.6257 6.45658 50.6622 6.82331C50.6344 6.81981 50.6048 6.81458 50.5769 6.81108Z" fill="#374151"/>
    <path d="M172.038 6.82163C171.646 6.25408 171.28 5.66382 170.851 5.1242C170.557 4.75398 170.188 4.43789 169.825 4.12879C169.613 3.94892 169.369 3.8878 169.155 4.1934C169.092 4.28247 168.897 4.33835 168.78 4.31565C167.906 4.15673 166.998 3.00066 167.019 2.11178C167.028 1.76251 167.18 1.55295 167.531 1.68218C169.55 2.42612 171.214 3.59092 172.008 5.697C172.137 6.03753 172.093 6.44442 172.13 6.81989C172.098 6.81989 172.069 6.81989 172.038 6.81989V6.82163Z" fill="#374151"/>
    <path d="M206.373 1.41667C206.523 2.67927 206.683 3.94012 206.819 5.20446C206.917 6.1143 206.985 7.02588 207.054 7.93747C207.126 8.86128 206.91 9.70475 206.283 10.5447C206.26 10.3299 206.246 10.2252 206.239 10.1186C206.133 8.41247 206.041 6.70456 205.917 4.99839C205.865 4.27541 205.649 3.55243 205.685 2.83993C205.711 2.34572 206.044 1.86897 206.241 1.38349C206.284 1.39397 206.328 1.40445 206.372 1.41318L206.373 1.41667Z" fill="#374151"/>
    <path d="M105.126 10.5326C105.126 9.94935 105.161 9.47609 105.119 9.00982C104.949 7.07314 104.792 5.13297 104.55 3.20502C104.456 2.45759 104.912 1.99481 105.207 1.41154C105.309 2.15373 105.433 2.89417 105.508 3.63985C105.651 5.0701 105.767 6.50209 105.895 7.93234C105.968 8.75311 105.806 9.5215 105.37 10.2253C105.323 10.3021 105.257 10.3685 105.126 10.5309V10.5326Z" fill="#374151"/>
    <path d="M184.901 10.4155C184.901 9.86892 184.942 9.31883 184.894 8.77572C184.719 6.82507 184.514 4.87617 184.322 2.92551C184.312 2.82597 184.294 2.71246 184.333 2.62864C184.523 2.21301 184.728 1.80437 185.017 1.41319C185.139 2.3859 185.278 3.35511 185.38 4.32956C185.505 5.54326 185.606 6.75871 185.707 7.97416C185.782 8.88749 185.547 9.71175 185.017 10.4452C184.979 10.4347 184.939 10.4243 184.901 10.4155Z" fill="#374151"/>
    <path d="M75.9601 1.28746C76.0977 2.36844 76.2405 3.32368 76.3381 4.28242C76.467 5.52406 76.5715 6.76744 76.6673 8.01258C76.7352 8.90845 76.5035 9.72398 75.9078 10.5378C75.8835 10.3317 75.866 10.2269 75.8591 10.1204C75.7546 8.44218 75.6657 6.76395 75.5421 5.08747C75.4881 4.35052 75.3069 3.62056 75.2965 2.88535C75.2912 2.52735 75.5421 2.16412 75.6866 1.80612C75.7441 1.66467 75.8277 1.53369 75.9601 1.28746Z" fill="#374151"/>
    <path d="M150.845 10.4191C150.845 9.9039 150.885 9.38524 150.838 8.87356C150.659 6.89323 150.408 4.91987 150.288 2.93779C150.258 2.44358 150.612 1.92491 150.788 1.41673L150.939 1.44467C151.005 1.89348 151.089 2.34054 151.132 2.79284C151.305 4.5252 151.47 6.25931 151.627 7.99341C151.709 8.89277 151.486 9.7118 150.843 10.4208L150.845 10.4191Z" fill="#374151"/>
    <path d="M115.812 4.03453C116.002 3.67304 116.175 3.34473 116.37 2.97451C116.779 3.18582 117.157 3.38141 117.587 3.60319C117.394 3.96643 117.213 4.30172 117.014 4.67369C116.598 4.45191 116.222 4.25108 115.814 4.03453H115.812Z" fill="#374151"/>
    <path d="M91.9548 4.13578C92.1377 3.76905 92.3049 3.43725 92.4948 3.0583C92.8989 3.26262 93.2786 3.45297 93.7053 3.66777C93.5294 4.02227 93.364 4.35058 93.1619 4.75573C92.7561 4.54792 92.3694 4.34883 91.9548 4.13578Z" fill="#374151"/>
    <path d="M70.1583 4.67543C69.7193 4.43967 69.364 4.24932 68.9617 4.03278C69.148 3.67653 69.324 3.33948 69.5156 2.97276C69.9388 3.19105 70.3185 3.38838 70.7366 3.60318C70.5363 3.97515 70.3551 4.31219 70.16 4.67543H70.1583Z" fill="#374151"/>
    <path d="M44.1115 12.8377C43.6865 12.6107 43.3207 12.4151 42.9114 12.1968C43.0977 11.8423 43.2684 11.514 43.4618 11.1421C43.8728 11.3499 44.2526 11.5437 44.6845 11.762C44.4947 12.1183 44.3153 12.4553 44.1115 12.8377Z" fill="#374151"/>
    <path d="M13.9993 13.5031C13.576 13.2865 13.1946 13.0909 12.7939 12.8849C12.9838 12.5146 13.1528 12.1828 13.3444 11.8056C13.7572 12.0169 14.1369 12.2125 14.5566 12.4273C14.3703 12.7853 14.1996 13.1136 13.9975 13.5031H13.9993Z" fill="#374151"/>
    <path d="M29.2346 3.212C28.8201 2.99022 28.4421 2.78939 28.0432 2.57634C28.2296 2.20611 28.3951 1.87257 28.5884 1.48837C29.0029 1.70841 29.3879 1.91273 29.8024 2.13277C29.6021 2.51172 29.4245 2.85051 29.2346 3.212Z" fill="#374151"/>
    <path d="M95.4021 3.01638C95.1931 3.39883 95.0224 3.71491 94.8238 4.0764C94.4249 3.86684 94.0487 3.66776 93.6272 3.44598C93.8153 3.08449 93.986 2.75618 94.1811 2.38246C94.5974 2.59901 94.9771 2.79634 95.4021 3.01638Z" fill="#374151"/>
    <path d="M225.202 13.5031C224.775 13.2848 224.394 13.0892 223.995 12.8831C224.187 12.5129 224.357 12.1811 224.549 11.8056C224.957 12.0152 225.336 12.209 225.754 12.4221C225.57 12.7836 225.401 13.1136 225.202 13.5013V13.5031Z" fill="#374151"/>
    <path d="M198.993 3.33948C198.567 3.12119 198.185 2.9256 197.786 2.71953C197.978 2.34931 198.149 2.01751 198.34 1.64204C198.748 1.8516 199.128 2.04545 199.546 2.2585C199.361 2.61999 199.192 2.95005 198.993 3.33773V3.33948Z" fill="#374151"/>
    <path d="M115.338 5.34417C114.915 5.12238 114.548 4.93203 114.144 4.72073C114.323 4.35924 114.487 4.02918 114.68 3.64149C115.093 3.8528 115.48 4.05014 115.896 4.26319C115.704 4.63516 115.535 4.96521 115.338 5.34591V5.34417Z" fill="#374151"/>
    <path d="M226.233 11.1351C226.656 11.3551 227.034 11.5507 227.447 11.7655C227.254 12.1288 227.08 12.4571 226.879 12.8308C226.522 12.6422 226.176 12.4763 225.852 12.2754C225.791 12.2388 225.768 12.0467 225.806 11.9576C225.918 11.6939 226.068 11.4459 226.235 11.1333L226.233 11.1351Z" fill="#374151"/>
    <path d="M233.648 11.2678C233.789 11.3341 233.869 11.3691 233.944 11.4092C234.601 11.755 234.702 12.2661 234.247 12.9425C233.876 12.7522 233.497 12.5583 233.07 12.34C233.268 11.9698 233.45 11.6328 233.646 11.2678H233.648Z" fill="#374151"/>
    <path d="M14.4678 12.1986C14.6698 11.8179 14.8423 11.4914 15.0304 11.1351C15.4449 11.3499 15.8124 11.5403 16.2444 11.7638C16.0545 12.12 15.8769 12.4553 15.6766 12.8325C15.276 12.623 14.8997 12.4256 14.4678 12.1986Z" fill="#374151"/>
    <path d="M27.5645 3.85634C27.1412 3.63979 26.7597 3.4442 26.3591 3.23814C26.549 2.86792 26.7179 2.53611 26.9095 2.15891C27.3223 2.37021 27.7021 2.5658 28.1218 2.7806C27.9355 3.1386 27.7648 3.46691 27.5627 3.85634H27.5645Z" fill="#374151"/>
    <path d="M26.5942 1.44816C26.7963 1.06746 26.9687 0.740895 27.1568 0.384644C27.5714 0.599442 27.9389 0.789792 28.3709 1.01332C28.181 1.36957 28.0033 1.70487 27.803 2.08208C27.4024 1.87252 27.0262 1.67518 26.5942 1.44816Z" fill="#374151"/>
    <path d="M67.2825 4.71901C67.4776 4.33831 67.6465 4.01 67.8346 3.64327C68.2492 3.85632 68.6271 4.05017 69.0434 4.26322C68.8518 4.63519 68.6776 4.97398 68.4895 5.34245C68.0767 5.1294 67.7092 4.93905 67.2842 4.71901H67.2825Z" fill="#374151"/>
    <path d="M41.7896 11.8074C42.2285 12.0344 42.5961 12.2248 42.9984 12.4343C42.8033 12.8046 42.6292 13.1346 42.4341 13.5031C42.0248 13.2935 41.645 13.0979 41.2288 12.8849C41.4238 12.5094 41.5945 12.1829 41.7896 11.8074Z" fill="#374151"/>
    <path d="M145.252 4.03452C145.654 4.24233 146.02 4.43093 146.429 4.64224C146.238 5.00548 146.067 5.33204 145.874 5.70226C145.524 5.51016 145.205 5.34776 144.902 5.15741C144.841 5.11899 144.794 4.95658 144.824 4.88672C144.94 4.6108 145.092 4.34885 145.254 4.03452H145.252Z" fill="#374151"/>
    </g>
    <defs>
    <clipPath id="clip0_198_6375">
    <rect width="243.814" height="15.125" fill="white" transform="translate(0.700684 0.384651)"/>
    </clipPath>
    </defs>
    </svg>
    